<svg xmlns="http://www.w3.org/2000/svg" xmlns:xlink="http://www.w3.org/1999/xlink" version="1.1" viewBox="0 0 460 460" enable-background="new 0 0 460 460">
  <g>
    <path d="m252.423,88.358c-4.115-2.401-9.409-3.496-14.173-3.496h-35.293c-2.058,0-4.089,0.754-5.507,2.245-2.677,2.814-2.73,6.978-0.464,9.809l20.321,25.401c5.86,7.324 14.6,11.525 23.98,11.525h6.12c0.178,9.878 3.141,21.22 7.37,32.219l-20.181,38.609c-17.77-0.345-81.239-0.013-142.132,19.659-2.037-10.86-10.926-35.229-49.665-36.779-3.349-0.12-6.39,2.008-7.384,5.22-4.349,14.051-5.841,43.796 18.187,58.947-0.899,1.606-1.744,3.281-2.532,5.027-27.599,61.131 22.473,192.919 24.619,198.499 1.102,2.866 3.855,4.757 6.925,4.757h40.657c3.824,0 7.021-2.905 7.386-6.712l11.34-119.93c4.77-6.238 8.538-13.52 10.006-21.835l60.123,19.429c11.656,4.399 19.476,15.699 19.476,28.167v93.461c0,4.098 3.322,7.419 7.419,7.419h62.563c3.838,0 7.043-2.927 7.389-6.75l20.788-229.427c10.239-8.722 18.899-21.889 23.196-29.056 10.137-16.907 20.95-41.646 21.293-60.925h6.969c9.329,0 18.151-4.24 23.979-11.525l20.321-25.401c2.265-2.831 2.212-6.994-0.465-9.809-1.419-1.492-3.45-2.245-5.508-2.245h-35.292c-4.763,0-10.057,1.095-14.173,3.495-4.039,2.356-15.537,10.412-15.537,10.412-1.392-0.768-2.87-1.499-4.449-2.183l36.062-25.758c15.651-11.18 24.995-29.338 24.995-48.571v-14.555c0-3.794-2.725-7.188-6.491-7.644-4.513-0.547-8.347,2.96-8.347,7.363v14.837c0,13.662-6.281,26.595-16.901,35.066v-28.018c0-3.794-2.725-7.188-6.491-7.644-4.513-0.547-8.347,2.96-8.347,7.363v38.985l-16.889,12.063v-19.04c0-3.794-2.725-7.188-6.491-7.644-4.513-0.547-8.347,2.96-8.347,7.363v30.757c-6.095-0.954-14.169-1.48-22.018-1.48-7.406,0-15.106,0.457-21.168,1.358v-30.353c0-3.794-2.725-7.188-6.491-7.644-4.513-0.547-8.347,2.96-8.347,7.363v19.321l-16.889-12.063v-38.705c0-3.794-2.725-7.188-6.491-7.644-4.513-0.547-8.347,2.96-8.347,7.363v28.298c-10.621-8.471-16.901-21.404-16.901-35.066v-14.555c0-3.793-2.725-7.187-6.49-7.645-4.513-0.548-8.349,2.959-8.349,7.363v14.837c0,19.234 9.344,37.391 24.995,48.571l35.762,25.544c-1.564,0.671-3.056,1.396-4.48,2.175-0.005,0.001-11.258-7.882-15.211-10.188zm69.397,102.092c4.092,2.317 7.368,5.911 9.284,10.238-9.339,12.202-16.865,16.947-20.277,16.947-3.189,0-10.66-4.76-19.913-16.729 1.839-4.279 5.003-7.858 8.973-10.22 0,0-0.228,3.142-0.26,4.191-0.124,3.998 4.73,11.684 11.201,11.684s11.294-7.685 11.201-11.684c-0.028-1.108-0.209-4.427-0.209-4.427zm-59.592-57.548c0-5.107 0.003-17.898 19.421-24.285l16.455,74.046c-5.08,2.46-9.357,6.322-12.336,11.076-1.377-2.055-2.779-4.251-4.202-6.614-11.748-19.509-19.338-40.793-19.338-54.223zm48.831,46.798c-1.162,0-2.307,0.074-3.434,0.204l-16.356-73.599c4.225-0.708 9.068-1.181 14.612-1.358v6.081c0,2.378 1.593,4.563 3.924,5.03 3.18,0.636 5.968-1.778 5.968-4.844v-6.27c5.548,0.171 10.395,0.629 14.622,1.316l-16.353,73.59c-0.982-0.098-1.977-0.15-2.983-0.15zm-82.166-66.653l-10.677-13.346h20.035c2.308,0 4.618,0.513 6.71,1.488l10.648,7.157c-2.588,3.18-4.593,6.743-5.966,10.657h-8.356c-4.822,1.42109e-14-9.382-2.191-12.394-5.956zm-180.546,89.839c28.005,3.632 29.774,23.349 29.876,26.474-5.945,2.466-11.175,5.951-15.665,10.428-16.119-9.358-15.677-27.591-14.211-36.902zm68.181,242.275h-5.642v-86.847c3.648-1.885 9.091-4.982 14.851-9.26l-9.209,96.107zm178.277,0h-16.833l2.872-85.993c0.136-4.096-3.072-7.526-7.168-7.663-4.047-0.123-7.526,3.072-7.663,7.167l-2.889,86.488h-16.686v-86.368c0-18.782-11.704-35.813-29.482-41.872-0.036-0.012-0.073-0.024-0.109-0.036l-69.391-22.425c-2.859-0.922-6.056-0.044-8.037,2.376-1.195,1.46-1.754,3.365-1.643,5.248 1.63,27.633-36.853,44.587-37.233,44.751-2.728,1.169-4.497,3.852-4.497,6.819v91.505h-8.26c-8.657-24.041-45.539-132.819-23.194-182.312 4.617-10.226 11.356-16.867 20.603-20.301 70.663-26.246 152.674-22.952 153.493-22.914 2.85,0.126 5.571-1.422 6.905-3.975l16.907-32.347c2.08,4.079 4.231,7.944 6.353,11.467 6.824,11.333 24.575,37.694 41.972,37.694 1.092,0 2.185-0.102 3.276-0.295l-19.296,212.986zm45.424-258.024c-1.363,2.274-2.705,4.393-4.024,6.378-3.055-4.78-7.43-8.634-12.612-11.044l16.435-73.959c19.396,6.217 19.398,18.745 19.398,24.39 0,13.495-7.535,34.784-19.197,54.235zm53.381-74.089c-3.012,3.764-7.571,5.956-12.392,5.956h-9.117c-1.224-3.594-3.042-7.104-5.632-10.371l11.074-7.443c2.092-0.975 4.404-1.489 6.711-1.489h20.034l-10.678,13.347z"></path>
    <path d="m286.98,168.557c0.92-0.92 1.444-2.196 1.444-3.501 0-1.306-0.525-2.582-1.444-3.502-0.921-0.92-2.197-1.444-3.502-1.444-1.296,0-2.573,0.524-3.492,1.444-0.92,0.92-1.454,2.196-1.454,3.502 0,1.306 0.534,2.582 1.454,3.501 0.92,0.92 2.196,1.445 3.492,1.445 1.306,2.84217e-14 2.582-0.524 3.502-1.445z"></path>
    <path d="m337.57,160.11c-1.306,0-2.582,0.524-3.502,1.454-0.92,0.91-1.444,2.186-1.444,3.492 0,1.306 0.525,2.582 1.444,3.501 0.92,0.92 2.196,1.445 3.502,1.445 1.295,0 2.572-0.525 3.502-1.445 0.92-0.92 1.444-2.196 1.444-3.501 0-1.306-0.525-2.582-1.444-3.492-0.93-0.93-2.196-1.454-3.502-1.454z"></path>
  </g>
</svg>