<svg xmlns="http://www.w3.org/2000/svg" xmlns:xlink="http://www.w3.org/1999/xlink" version="1.1" viewBox="0 0 460 460" enable-background="new 0 0 460 460">
  <g>
    <path d="m208.556,326.323c11.672,0 20.474,9.487 20.474,22.092v39.29c0,4.063 3.293,7.356 7.356,7.356h64.529c3.22,0 6.065-2.094 7.023-5.167 0.289-0.927 28.169-90.907 39.669-170.263 4.297-1.769 8.335-3.769 12.052-6.003 3.264-1.961 6.278-4.084 9.044-6.358 9.939,3.222 20.096,4.867 29.659,4.867 9.842,0 19.054-1.736 26.741-5.268 14.806-6.805 25.473-18.36 30.847-33.417 7.185-20.131 4.71-46-6.622-69.199-8.605-17.617-23.924-27.837-45.533-30.378-14.361-1.687-31.179-0.064-52.712,5.093-14.905-9.319-33.487-14.028-55.535-14.028-21.594,0-40.351,4.909-55.386,14.359-22.193-5.419-39.418-7.149-54.083-5.424-10.061,1.183-18.741,4.053-26.032,8.537-24.591,3.755-52.479,12.546-82.189,29.917-9.399,5.496-17.272,11.562-23.829,17.752-1.927,0.464-49.248,11.727-53.947,43.172-0.601,4.018 2.17,7.762 6.188,8.362 0.369,0.055 0.735,0.082 1.096,0.082 3.582,0 6.721-2.621 7.266-6.27 1.588-10.628 11.933-18.654 22.282-23.966-18.411,32.534-11.396,70.835 0.536,108.586 26.059,82.449 43.434,129.733 43.606,130.201 1.066,2.892 3.82,4.813 6.902,4.813h54.816c4.063,0 7.356-3.293 7.356-7.356v-39.29c0-11.77 9.244-21.437 20.853-22.092h37.573zm-54.792-215.614c6.354-13.008 17.486-20.278 34.033-22.223 10.431-1.226 22.636-0.387 37.759,2.627-1.25,1.288-2.463,2.617-3.628,3.996-13.942,16.5-21.621,39.609-21.621,65.072 0,13.136 3.602,24.849 10.568,34.761-14.791,3.778-29.38,3.42-39.96-1.442-11.282-5.185-19.066-13.594-23.135-24.994-5.795-16.232-3.501-38.378 5.984-57.797zm-18.346,237.706v31.934h-13.599l-1.333-6.667c-2.706-13.533-0.947-24.273 5.23-31.922 3.254-4.03 7.8-7.267 13.562-9.73-2.465,4.939-3.86,10.501-3.86,16.385zm-29.359,31.934h-12.941c-5.002-13.924-20.411-57.568-41.64-124.735-18.251-57.744-18.962-99.731 33.806-130.584 18.885-11.042 37.92-19.063 57.005-24.079-0.608,1.071-1.191,2.17-1.744,3.302-11.332,23.198-13.807,49.067-6.622,69.199 5.374,15.057 16.041,26.612 30.847,33.417 7.688,3.533 16.897,5.268 26.74,5.268 9.844,0 20.319-1.744 30.536-5.157 2.86,2.383 5.987,4.604 9.389,6.648 8.314,4.995 18.216,8.836 29.131,11.448-2.449,4.472-5.551,7.379-9.396,8.808-10.203,3.791-24.217-3.305-29.769-6.534-3.271-1.902-7.229-2.372-10.856-1.288-3.635,1.086-6.693,3.655-8.391,7.05l-2.905,5.812c-2.881,5.758-1.439,12.651 3.506,16.762 8.71,7.241 27.892,20.52 51.376,20.518 8.649,0 17.887-1.803 27.392-6.372 26.058-12.526 40.402-29.408 48.292-44.575 0.72-0.168 1.435-0.34 2.146-0.518-10.202,65.422-30.688,136.192-36.501,155.611h-21.019l5.062-28.462c0.711-4-1.954-7.819-5.954-8.531-3.997-0.704-7.819,1.954-8.531,5.954l-5.521,31.039h-15.755v-31.934c0-20.992-15.127-36.793-35.186-36.793h-38.364c-26.477,0.708-45.301,7.741-55.922,20.895-8.925,11.051-11.764,30.065-8.211,47.831zm230.535-172.35c3.033-11.05 2.832-18.962 2.8-19.784-0.157-4.06-3.625-7.22-7.635-7.067-4.06,0.157-7.223,3.576-7.067,7.635 0.017,0.432 1.083,43.453-49.543,67.788-27.105,13.026-52.276-3.454-62.414-11.725l2.139-4.28c9.355,5.298 26.393,12.691 41.42,7.107 9.555-3.55 16.517-11.481 20.694-23.572 6.461-18.704-8.73-39.168-9.379-40.03-2.445-3.245-7.058-3.892-10.302-1.446-3.244,2.445-3.892,7.058-1.446,10.302 2.077,2.755 6.532,10.243 7.719,17.724-26.291-6.431-48.562-21.827-48.562-50.47 0-18.251 5.427-76.394 73.173-80.314v42.231c0,4.063 3.293,7.356 7.356,7.356s7.356-3.293 7.356-7.356v-42.238c65.855,3.684 73.173,56.952 73.173,80.32 0,25.274-17.343,40.23-39.482,47.819zm105.5-39.493c-4.069,11.4-11.852,19.809-23.134,24.994-10.334,4.75-24.497,5.215-38.935,1.721 7.094-9.971 10.764-21.781 10.764-35.04 0-18.129-3.67-44.128-21.157-65.042-1.245-1.489-2.541-2.917-3.876-4.297 10.042-1.933 18.803-2.9 26.584-2.9 3.419,0 6.655,0.183 9.737,0.545 16.546,1.945 27.678,9.215 34.032,22.223 9.484,19.418 11.778,41.564 5.985,57.796z"></path>
    <path d="m240.346,157.705c-1.932,0-3.825,0.784-5.198,2.157-1.374,1.363-2.158,3.266-2.158,5.199 0,1.942 0.784,3.835 2.158,5.208 1.373,1.363 3.266,2.148 5.198,2.148 1.942,0 3.835-0.785 5.208-2.148 1.363-1.373 2.148-3.266 2.148-5.208 0-1.932-0.784-3.835-2.148-5.199-1.373-1.372-3.266-2.157-5.208-2.157z"></path>
    <path d="m350.745,157.705c-1.932,0-3.835,0.784-5.198,2.157-1.374,1.363-2.158,3.266-2.158,5.199 0,1.942 0.784,3.835 2.158,5.198 1.363,1.373 3.256,2.158 5.198,2.158 1.932,0 3.835-0.785 5.198-2.158 1.374-1.363 2.158-3.256 2.158-5.198 0-1.932-0.784-3.835-2.158-5.199-1.363-1.372-3.265-2.157-5.198-2.157z"></path>
    <path d="m299.697,208.496h-8.3c-2.708,0-4.904,2.196-4.904,4.904s2.196,4.904 4.904,4.904h8.3c2.708,0 4.904-2.196 4.904-4.904s-2.196-4.904-4.904-4.904z"></path>
    <path d="m303.847,191.895h-16.6c-2.708,0-4.904,2.196-4.904,4.904s2.196,4.904 4.904,4.904h16.6c2.708,0 4.904-2.196 4.904-4.904s-2.195-4.904-4.904-4.904z"></path>
  </g>
</svg>