<svg xmlns="http://www.w3.org/2000/svg" xmlns:xlink="http://www.w3.org/1999/xlink" version="1.1" viewBox="0 0 460 460" enable-background="new 0 0 460 460">
  <path d="m275.924,202.696c0.634,4.742 0.774,11.422 2.338,16.846-20.779,6.357-88.998,27.554-149.335,49.965-12.244,4.548-21.563,12.397-27.811,23.368-0.352-5.904 0.081-11.907 1.326-17.894 3.873-18.621 14.988-34.266 31.297-44.052l68.726-41.235c19.782-11.87 33.356-30.826 38.22-53.378 4.864-22.552 0.31-45.418-12.821-64.386l-47.553-68.687c-1.777-2.567-4.953-3.768-7.983-3.026-3.031,0.744-5.289,3.281-5.676,6.377l-6.145,49.16c-2.319,18.549-13.686,34.615-30.406,42.975l-79.634,39.817c-25.459,12.73-43.178,36.055-48.612,63.997-5.434,27.941 2.251,56.207 21.084,77.55l71.154,80.642c7.177,46.134 29.32,92.221 30.685,95.029 1.259,2.592 3.888,4.237 6.77,4.237h41.39c3.796,0 6.999-2.827 7.469-6.594l11.201-84.413c4.713-6.518 8.284-14.127 9.319-22.816h52.204c14.393,0 26.102,11.709 26.102,26.102v80.194c0,4.157 3.37,7.528 7.528,7.528h62.085c3.852,0 7.083-2.909 7.486-6.74l16.811-159.706c17.32-3.1 35.405-14.251 50.886-31.646 16.661-18.721 24.706-42.43 26.951-59.197 4.33-32.327 8.858-88.981 8.868-91.679 0.012-3.05-1.818-5.806-4.633-6.979-2.815-1.172-6.061-0.531-8.217,1.626 0,0-45.335,45.636-45.703,46.546-11.2-3.106-23.913-4.706-37.842-4.706-14.501,0-27.08,1.717-37.85,4.685-0.367-0.902-45.694-46.526-45.694-46.526-2.157-2.156-5.403-2.798-8.217-1.626-2.815,1.173-4.645,3.929-4.633,6.979 0.012,2.697 4.54,59.332 8.865,91.663zm84.315,44.415c-0.98-11.739-5.592-21.598-13.757-29.354-16.388-15.567-42.649-18.282-54.997-18.653 3.08-14.377 19.607-35.087 66.952-36.455v45.253c0,2.771 2.247,5.018 5.018,5.018 2.771,0 5.018-2.247 5.018-5.018v-45.249c44.495,1.361 63.594,20.791 66.956,36.451-12.353,0.373-38.603,3.091-54.985,18.652-8.164,7.755-12.776,17.612-13.757,29.348l-6.448,.007zm84.1-117.478c-0.564,13.919-1.721,31.32-3.841,46.615-2.854-3.601-6.224-6.967-10.067-9.966-4.203-3.28-8.953-6.133-14.17-8.573l28.078-28.076zm-161.765,.001l28.018,28.018c-10.513,4.873-18.55,11.18-24.227,18.219-2.086-15.201-3.23-32.429-3.791-46.237zm-107.128-72.013l3.701-29.609 36.339,52.488c10.737,15.508 14.459,34.204 10.483,52.642s-15.074,33.938-31.249,43.642l-12.351,7.411-51.692-68.923 6.158-3.079c21.233-10.615 35.667-31.017 38.611-54.572zm-141.218,212.51c-15.716-17.811-22.129-41.399-17.594-64.715 4.535-23.316 19.321-42.782 40.567-53.405l64.351-32.176 52.164,69.552-47.723,28.633c-19.665,11.799-33.621,31.443-38.291,53.896-3.438,16.529-1.622,33.655 4.881,48.992-0.535,4.716-0.756,9.587-0.707,14.558l-57.648-65.335zm132.066,174.814h-6.522v-49.835c3.443-1.784 8.458-4.637 13.819-8.533l-7.297,58.368zm175.776,0h-16.509l2.872-95.722c0.124-4.156-3.143-7.626-7.298-7.75-4.186-0.148-7.625,3.143-7.75,7.298l-2.885,96.174h-16.21v-72.666c0-22.694-18.463-41.157-41.157-41.157h-59.498c-2.078,0-4.064,0.859-5.486,2.373-1.423,1.514-2.156,3.55-2.026,5.624 1.71,27.365-36.467,44.187-36.843,44.349-2.767,1.186-4.562,3.908-4.562,6.919v54.558h-8.359c-8.588-19.003-41.65-97.156-24.837-139.062 4.394-10.951 11.802-18.233 22.65-22.262 61.072-22.684 130.336-44.136 149.566-50.009 4.64,9.584 11.166,19.332 19.145,28.297 16.729,18.799 36.503,30.305 55.063,32.237l-15.876,150.799zm21.386-165.561c-33.11,0-68.011-43.175-72.125-70.226 8.425,0.281 24.028,1.75 37.087,8.249-0.387-0.062-0.779-0.103-1.173-0.103-1.987,0-3.924,0.803-5.33,2.198-1.395,1.405-2.208,3.342-2.208,5.33 0,1.977 0.813,3.914 2.208,5.319 1.405,1.395 3.342,2.208 5.33,2.208 1.977,0 3.914-0.813 5.319-2.208 1.395-1.405 2.208-3.342 2.208-5.319 0-1.776-0.653-3.509-1.787-4.861 2.35,1.482 4.573,3.153 6.584,5.063 6.348,6.031 9.853,13.485 10.655,22.693-0.416,0.772-0.707,1.778-0.707,3.107 0,5.328 7.117,12.087 11.359,15.643 0.746,0.625 1.662,0.938 2.579,0.938s1.833-0.313 2.579-0.938c4.242-3.555 11.359-10.315 11.359-15.643 0-1.314-0.286-2.31-0.694-3.079 0.796-9.21 4.295-16.667 10.636-22.7 2.002-1.904 4.216-3.571 6.56-5.05-1.121,1.347-1.753,3.066-1.753,4.827 0,1.977 0.803,3.914 2.208,5.319s3.342,2.208 5.32,2.208c1.977,0 3.924-0.803 5.329-2.208 1.395-1.405 2.198-3.342 2.198-5.319 0-1.987-0.803-3.925-2.198-5.33-1.405-1.395-3.342-2.198-5.329-2.198-0.38,0-0.757,0.039-1.131,0.096 13.031-6.463 28.612-7.944 37.04-8.234-4.12,27.051-39.017,70.218-72.123,70.218z"></path>
</svg>