<svg xmlns="http://www.w3.org/2000/svg" xmlns:xlink="http://www.w3.org/1999/xlink" version="1.1" viewBox="0 0 460 460" enable-background="new 0 0 460 460">
  <g>
    <path d="m82.09,320.427c0-7.738 2.331-14.467 6.895-18.009 7.48-5.805 20.348-5.911 29.698-4.826-1.342,2.28-2.542,4.709-3.6,7.286-21.052,51.316 22.976,146.79 24.861,150.829 1.221,2.618 3.849,4.292 6.738,4.292h40.45c3.833,0 7.039-2.914 7.403-6.73l7.587-79.551c0.006-0.058 0.004-0.115 0.008-0.172 3.887-5.157 7.032-11.073 8.605-17.744 8.414,4.345 20.406,10.684 28.143,15.4 12.761,7.778 18.965,16.303 18.965,26.06v55.302c0,4.107 3.329,7.436 7.436,7.436h57.644c3.815,0 7.012-2.888 7.398-6.684l31.939-313.984c20.949-15.716 33.542-53.644 33.542-75.823 0-2.345-0.193-4.752-0.631-7.159l5.25-5.25c4.832-4.832 7.17-11.498 6.416-18.29l-2.303-20.732c-0.316-2.841-2.232-5.25-4.929-6.196-2.697-0.945-5.698-0.262-7.719,1.759l-16.086,16.085c-2.046,2.046-3.682,4.502-4.803,7.17-1.226-0.407-2.502-0.79-3.845-1.139l3.45-10.352c4.644-0.753 8.205-4.78 8.205-9.634 0-5.388-4.384-9.771-9.771-9.771s-9.772,4.384-9.772,9.771c0,2.271 0.786,4.359 2.091,6.02l-4.032,12.097c-4.453-0.569-9.393-0.877-14.874-0.877-5.232,0-9.959,0.293-14.234,0.828l-3.867-11.601c1.529-1.725 2.467-3.986 2.467-6.468 0-5.388-4.384-9.771-9.771-9.771s-9.772,4.384-9.772,9.771c0,4.657 3.278,8.558 7.646,9.532l3.458,10.376c-1.374,0.354-2.688,0.737-3.939,1.151-1.121-2.641-2.745-5.073-4.774-7.103l-16.086-16.085c-2.021-2.021-5.023-2.705-7.719-1.759-2.698,0.946-4.614,3.355-4.929,6.196l-2.303,20.732c-0.755,6.792 1.584,13.458 6.416,18.29l4.816,4.816c-0.56,2.693-0.762,5.277-0.762,7.593 0,1.427 0.072,2.92 0.181,4.446l-44.274,158.876c-0.121,0.433-0.182,0.881-0.182,1.331v26.535c-21.536,1.219-57.862,5.857-100.726,21.778-5.305,1.97-10.018,4.637-14.139,7.966-6.43-1.448-33.577-6.547-50.05,6.199-7.989,6.181-12.196,15.256-12.54,26.974-3.438,1.027-6.56,3.192-8.916,6.308-11.704,15.47-1.833,32.659 5.021,39.587 1.434,1.449 3.35,2.207 5.289,2.206 1.242,0 2.494-0.311 3.633-0.949 8.614-4.828 22.969-18.658 15.637-36.441-1.344-3.252-3.405-5.944-5.94-7.898zm287.078-310.682c-0.066-0.03-0.131-0.061-0.199-0.089 0.021-0.012 0.041-0.028 0.066-0.028 0.069,1.77636e-15 0.119,0.052 0.133,0.117zm-298.912,338.064c-2.208-4.019-3.866-9.735 0.052-14.912 0.383-0.507 0.976-1.086 1.68-1.086 0.055,0 0.109,0.003 0.165,0.011 0.812,0.105 1.607,0.918 2.125,2.174 2.36,5.722-0.788,10.613-4.022,13.813zm286.684-305.084l-14.491,59.107-14.431-59.18c3.788-0.491 9.426-0.768 14.431-0.768 5.34,7.10543e-15 10.53,0.304 14.491,0.841zm-14.491,88.884c-5.017,0-10.715-3.659-16.292-10.195 2.102-6.495 8.393-10.837 16.481-10.837 8.234,0 14.596,4.504 16.582,11.193-5.224,6.021-10.977,9.839-16.771,9.839zm-38.481-68.099c0-3.845 0-13.338 14.297-18.371l14.598,59.231c-5.148,1.927-9.345,5.369-12.051,9.81-1.336-2.056-2.652-4.253-3.93-6.62-7.725-14.308-12.914-32.01-12.914-44.05zm-8.411-22.926c-1.619-1.62-2.404-3.855-2.15-6.131l.595-5.355 5.144,5.144c0.727,0.726 1.301,1.605 1.677,2.56l.198,1.008c-1.607,1.274-3.009,2.619-4.228,4.01l-1.236-1.236zm-40.823,188.256l38.779-139.155c1.799,6.005 4.091,12.093 6.788,17.929l-40.631,146.692c-1.415-0.012-3.071-0.008-4.936,0.022v-25.488zm-33.444,43.236l16.301,24.515-12.593,6.296-34.522-8.63-7.265-14.53c14.087-3.668 26.945-6.078 38.079-7.651zm-93.376,40.918l15.678,7.839v23.767l-17.467,17.467c-2.751-17.871-3.009-35.373 1.789-49.073zm45.419,132.134v-48.245c3.142-1.64 7.598-4.195 12.368-7.637l-5.33,55.882h-7.038zm163.364-201.454l-18.546-6.182 7.855-31.419 15.025-5.008-4.334,42.609zm5.435-53.427l-21.842,7.28c-1.608,0.536-2.831,1.857-3.242,3.501l-9.628,38.513c-0.628,2.513 0.784,5.086 3.242,5.906l25.008,8.335-19.464,191.345h-14.272l2.476-47.663c0.213-4.101-2.939-7.599-7.04-7.812-4.098-0.217-7.599,2.939-7.812,7.04l-2.516,48.435h-14.326v-47.866c0-15.164-8.78-28.204-26.096-38.759-13.435-8.189-37.932-20.447-38.969-20.964-2.379-1.189-5.211-1.017-7.429,0.452-2.217,1.468-3.482,4.009-3.316,6.663 1.568,25.09-33.593,40.589-33.937,40.738-2.734,1.172-4.507,3.86-4.507,6.835v52.9h-6.948c-4.682-10.798-16.809-40.408-23.23-71.198l23.771-23.771c0.93-0.93 1.452-2.191 1.452-3.506v-28.885c0-1.878-1.061-3.594-2.741-4.434l-18.586-9.293c4.07-6.392 9.707-10.882 17.092-13.625 8.332-3.095 16.422-5.74 24.198-8.005l9.159,18.317c0.647,1.295 1.828,2.241 3.232,2.592l38.513,9.628c0.396,0.099 0.8,0.148 1.203,0.148 0.764,0 1.524-0.177 2.217-0.523l19.256-9.628c1.272-0.636 2.21-1.787 2.575-3.162 0.365-1.374 0.122-2.839-0.667-4.022l-16.696-25.044c20.047-2.119 32.278-1.404 32.521-1.387 3.518,0.231 6.722-2.035 7.664-5.435l38.261-138.135c9.645,13.451 20.658,20.718 31.742,20.718 1.412,0 2.8-0.109 4.166-0.307l-4.484,44.078zm22.509-75.773c-2.757-4.684-7.155-8.288-12.575-10.229l14.59-59.195c14.275,4.903 14.275,14.21 14.275,18.46-0.001,14.883-6.735,36.167-16.29,50.964zm19.771-76.514l.227-1.159c0.376-0.955 0.95-1.833 1.677-2.56l5.145-5.145 .595,5.355c0.253,2.277-0.531,4.512-2.15,6.131l-1.384,1.383c-1.188-1.398-2.553-2.739-4.11-4.005z"></path>
    <path d="m321.379,85.789c0.922-0.922 1.458-2.201 1.458-3.5 0-1.309-0.535-2.588-1.458-3.51-0.922-0.922-2.201-1.458-3.5-1.458-1.309,0-2.588,0.535-3.51,1.458-0.922,0.922-1.448,2.201-1.448,3.51 0,1.299 0.525,2.577 1.448,3.5 0.922,0.922 2.201,1.458 3.51,1.458 1.299,0 2.578-0.536 3.5-1.458z"></path>
    <path d="m334.665,114.81c-1.041,0-2.062,0.416-2.806,1.16-0.733,0.734-1.16,1.765-1.16,2.806 0,1.041 0.427,2.062 1.16,2.806 0.744,0.733 1.765,1.16 2.806,1.16 1.051,0 2.073-0.427 2.806-1.16 0.744-0.744 1.16-1.765 1.16-2.806 0-1.041-0.416-2.072-1.16-2.806-0.734-0.744-1.755-1.16-2.806-1.16z"></path>
    <path d="m350.886,114.81c-1.041,0-2.073,0.427-2.806,1.16-0.734,0.734-1.16,1.755-1.16,2.806 0,1.041 0.426,2.062 1.16,2.806 0.744,0.733 1.765,1.16 2.806,1.16 1.041,0 2.062-0.427 2.805-1.16 0.734-0.744 1.16-1.765 1.16-2.806 0-1.041-0.427-2.072-1.16-2.806-0.743-0.734-1.764-1.16-2.805-1.16z"></path>
    <path d="m366.531,77.332c-1.309,0-2.588,0.525-3.51,1.448-0.922,0.922-1.448,2.201-1.448,3.5 0,1.309 0.525,2.588 1.448,3.51 0.922,0.922 2.201,1.448 3.51,1.448 1.299,0 2.578-0.525 3.5-1.448 0.922-0.922 1.458-2.201 1.458-3.51 0-1.299-0.535-2.578-1.458-3.5-0.922-0.923-2.201-1.448-3.5-1.448z"></path>
    <path d="m302.601,293.555h-38.513c-1.526,0-2.968,0.703-3.907,1.906-0.94,1.204-1.272,2.772-0.902,4.253l9.628,38.513c0.551,2.207 2.534,3.755 4.809,3.755h28.885c1.315,0 2.576-0.522 3.506-1.452l9.628-9.628c1.327-1.328 1.791-3.292 1.198-5.073l-9.628-28.885c-0.676-2.023-2.57-3.389-4.704-3.389zm-2.054,38.513h-22.96l-7.15-28.598h28.59l7.53,22.588-6.01,6.01z"></path>
  </g>
</svg>