<svg xmlns="http://www.w3.org/2000/svg" xmlns:xlink="http://www.w3.org/1999/xlink" version="1.1" viewBox="0 0 460 460" enable-background="new 0 0 460 460">
  <g>
    <path d="m401.33,135.156c-1.035-1.025-2.452-1.618-3.908-1.618-1.457,0-2.884,0.593-3.909,1.618-1.034,1.025-1.617,2.452-1.617,3.909 0,1.457 0.583,2.883 1.617,3.908 1.025,1.025 2.452,1.618 3.909,1.618 1.446,0 2.873-0.593 3.908-1.618 1.025-1.025 1.618-2.452 1.618-3.908 0-1.457-0.592-2.884-1.618-3.909z"></path>
    <path d="m329.379,144.591c1.457,0 2.884-0.593 3.909-1.618 1.034-1.035 1.617-2.452 1.617-3.908 0-1.457-0.583-2.874-1.617-3.909-1.025-1.025-2.452-1.618-3.909-1.618-1.456,0-2.873,0.593-3.908,1.618-1.024,1.025-1.618,2.452-1.618,3.909 0,1.457 0.594,2.883 1.618,3.908 1.035,1.025 2.452,1.618 3.908,1.618z"></path>
    <path d="m234.493,179.609c-0.022-0.005-0.042-0.01-0.064-0.015-12.416-2.868-16.291,6.049-18.855,11.948-1.705,3.922-3.469,7.978-7.15,10.783-4.681,3.566-5.365,7.273-5.115,9.754 0.728,7.218 9.605,11.508 19.003,16.05 3.13,1.513 6.087,2.942 8.404,4.332 3.079,1.847 5.901,2.497 8.348,2.497 2.345,0 4.347-0.597 5.898-1.308 7.284-3.339 12.796-12.989 15.121-26.475 2.783-16.142-14.776-24.923-25.59-27.566zm15.687,25.858c-1.906,11.054-6.097,17.532-9.406,19.049-0.995,0.456-2.451,0.792-4.89-0.671-2.705-1.623-6.008-3.219-9.201-4.763-4.136-1.999-11.637-5.623-13.205-7.832 0.184-0.212 0.502-0.527 1.035-0.934 5.763-4.39 8.265-10.145 10.275-14.769 2.866-6.59 3.422-7.074 7.337-6.174 0.702,0.182 19.911,5.336 18.055,16.094z"></path>
    <path d="m236.765,200.763c-0.021-0.005-0.041-0.01-0.063-0.015-1.991-0.46-4.754,0.055-6.291,2.954-0.997,1.12-1.489,2.58-1.338,4.072 0.31,3.062 2.926,4.326 3.786,4.741l.128,.057c0.906,0.544 1.923,0.819 2.939,0.819 0.79,0 1.58-0.167 2.314-0.503 1.876-0.86 3.186-2.711 3.594-5.08 0.556-3.228-1.575-6.191-5.069-7.045z"></path>
    <path d="m150.717,211.634c-12.987-0.24-17.713,14.22-18.465,22.801-0.002,0.022-0.003,0.043-0.005,0.065-0.777,10.416 7.056,12.481 11.737,13.716 2.992,0.789 5.817,1.534 8.002,3.642 2.575,2.484 4.992,3.203 6.927,3.203 0.731,0 1.393-0.103 1.969-0.251 5.87-1.516 8.095-8.764 10.45-16.437 0.738-2.403 1.435-4.672 2.16-6.447 1.693-4.139 1.393-8.29-0.843-11.688-3.473-5.275-11.466-8.412-21.932-8.604zm13.475,16.489c-0.897,2.194-1.694,4.79-2.465,7.3-0.763,2.485-2.054,6.691-3.182,8.813-3.978-3.621-8.597-4.839-12-5.736-4.399-1.16-4.434-1.169-4.282-3.203 0.056-0.522 1.594-13.618 8.178-13.618 0.03,0 0.061,0 0.092,0.001 7.675,0.142 12.494,2.216 13.723,4.083 0.18,0.274 0.555,0.844-0.064,2.36z"></path>
    <path d="m115.771,255.78c-3.973-1.584-8.081-3.221-10.997-6.814-3.708-4.569-7.433-5.14-9.907-4.813-7.192,0.949-11.207,9.954-15.458,19.488-1.415,3.175-2.753,6.174-4.071,8.533-3.43,6.137-2.301,11.151-0.75,14.277 3.561,7.178 13.376,12.39 26.927,14.299 0.961,0.135 1.892,0.2 2.797,0.2 14.377,0 21.796-16.38 23.968-26.626 0.004-0.021 0.009-0.042 0.013-0.063 2.481-12.499-6.548-16.099-12.522-18.481zm2.677,16.472c-0.174,0.756-4.792,20.055-15.532,18.547-11.107-1.565-17.711-5.555-19.329-8.816-0.487-0.981-0.867-2.425 0.521-4.908 1.54-2.755 3.032-6.104 4.477-9.343 1.871-4.196 5.263-11.804 7.422-13.441 0.218,0.178 0.543,0.486 0.965,1.006 4.566,5.625 10.394,7.949 15.078,9.816 6.672,2.66 7.174,3.205 6.398,7.139z"></path>
    <path d="m104.072,270.985c-1.149-0.962-2.62-1.407-4.109-1.212-3.051,0.403-4.234,3.057-4.623,3.929l-.053,.131c-0.916,1.64-0.973,3.606-0.153,5.26 0.917,1.848 2.808,3.1 5.188,3.435 0.283,0.04 0.563,0.059 0.839,0.059 2.892,0 5.364-2.131 6.045-5.342 0.004-0.021 0.009-0.041 0.013-0.062 0.398-2.004-0.202-4.751-3.147-6.198z"></path>
  </g>
  <path d="m363.407,62.407c-10.792-0.23-33.111,0.416-48.61,5.731-2.783-2.069-6.154-4.468-9.768-6.792-14.137-9.092-23.774-11.791-30.326-8.495-4.396,2.212-7.405,6.076-8.704,11.173-2.792,10.958 2.676,28.051 14.639,46.113-0.427,3.242-0.654,6.632-0.654,10.185 0,7.06 1.106,16.539 3.763,26.778-31.345,6.836-105.215,23.221-182.764,42.383-11.915,2.944-22.042,8.655-30.297,17.012-1.81-14.503-3.806-45.763 3.228-92.182 3.545-23.397-0.525-44.665-11.771-61.502-9.35-13.999-22.078-22.437-30.873-25.666-6.898-2.534-14.648-1.623-20.735,2.433l-.34,.227c-6.432,4.288-10.242,11.446-10.195,19.151 0.049,7.85 4.042,15.11 10.683,19.42 15.117,9.812 20.887,26.923 17.15,50.859-16.401,105.053 15.382,179.804 16.711,182.881 1.673,60.461 21.203,123.025 22.428,126.892 0.993,3.132 3.899,5.259 7.183,5.259h53.272c3.851,0 7.083-2.904 7.493-6.733l11.654-109.796c6.529-8.486 11.555-18.563 12.812-30.183 0,0 58.348,6.018 77.193,11.005 15.46,4.091 24.818,20.424 24.818,36.463v91.709c0,4.162 3.373,7.536 7.536,7.536h67.923c3.533,0 6.592-2.455 7.357-5.904l48.187-217.279c15.806-5.982 28.85-17.197 38.456-33.286 11.778-19.726 15.975-42.625 15.975-57.476 0-4.264-0.31-8.306-0.925-12.122 11.082-17.342 16.069-33.611 13.376-44.176-1.299-5.098-4.308-8.962-8.704-11.173-6.552-3.297-16.188-0.599-30.326,8.495-3.404,2.189-6.606,4.452-9.295,6.439-15.213-4.946-37.003-5.602-47.55-5.379zm13.192,20.665c0.293-1.891 0.697-3.438 1.136-4.702 4.317,0.018 9.001,0.178 13.744,0.684 0.125,0.069 0.254,0.139 0.372,0.207-2.637,2.651-3.907,5.713-4.873,8.041-0.316,0.761-0.767,1.85-1.092,2.376-0.131-0.011-0.315-0.035-0.556-0.085-1.623-0.378-9.289-2.919-8.731-6.521zm-51.407,2.628c0.093-0.943 0.49-3.173 1.264-5.24 4.512-0.984 9.148-1.517 13.64-1.801 0.076,0.085 0.132,0.16 0.152,0.218 0.01,0.051-0.002,0.297-0.183,0.739-0.716,1.75-1.342,3.79-1.948,5.763-0.474,1.543-1.156,3.765-1.808,5.379-2.982-2.255-6.188-3.101-8.625-3.743-0.797-0.21-1.936-0.511-2.501-0.761-0.007-0.132-0.008-0.313 0.009-0.554zm42.062-7.262c-0.227,0.971-0.423,2.051-0.585,3.095-1.67,10.779 9.569,16.302 16.472,17.866 0.021,0.005 0.042,0.009 0.064,0.014 1.07,0.228 2.051,0.332 2.951,0.332 6.539,0 8.811-5.477 10.104-8.593 0.863-2.081 1.679-4.046 3.3-5.326 2.012-1.588 2.987-3.246 3.405-4.741 6.989,1.826 13.528,4.83 18.537,9.734 4.452,4.359 7.42,9.928 8.973,16.84-9.805,0.146-33.709,2.143-49.708,17.217-9.143,8.614-14.166,19.956-14.992,33.879h-4.818c-0.852-13.859-5.872-25.294-14.983-33.88-15.957-15.035-39.778-17.062-49.631-17.216 1.553-6.912 4.521-12.482 8.973-16.841 2.876-2.816 6.261-4.999 9.941-6.699-0.028,0.246-0.053,0.488-0.074,0.724-0.002,0.022-0.004,0.043-0.006,0.065-0.673,9.02 6.236,10.842 9.948,11.821 2.178,0.574 4.236,1.117 5.722,2.551 2.253,2.173 4.403,2.805 6.142,2.805 0.677,0 1.292-0.096 1.827-0.234 5.167-1.334 6.984-7.256 8.908-13.525 0.565-1.84 1.099-3.579 1.643-4.909 0.696-1.702 0.987-3.337 0.902-4.979h16.985zm-16.827,76.181c-7.627,1.335-23.083,6.411-33.753,25.577-2.624-3.057-5.067-6.442-7.321-10.164-9.878-16.313-14.299-36.721-14.299-49.71 0-0.89 0.019-1.76 0.05-2.619 7.615,0.029 29.983,1.298 43.977,14.484 6.15,5.796 9.942,13.322 11.346,22.432zm-71.771-87.37c0.436-1.71 1.161-2.33 1.83-2.686 2.901-0.668 11.517,3.629 20.985,10.068-2.362,1.582-4.613,3.372-6.702,5.417-3.784,3.705-6.84,8.002-9.178,12.858-6.17-11.779-8.093-21.109-6.935-25.657zm-219.303,153.092c-6.857,12.236-11.061,28.487-13.148,44.381-3.978-16.284-7.997-38.381-9.438-64.8 0.851,0.527 1.853,0.893 2.968,1.05 0.283,0.04 0.563,0.059 0.839,0.059 2.892,0 5.364-2.131 6.045-5.342 0.004-0.021 0.009-0.043 0.013-0.064 0.398-2.005-0.204-4.751-3.148-6.197-1.149-0.961-2.619-1.407-4.108-1.212-1.347,0.178-2.314,0.8-3.025,1.509-0.562-20.694 0.523-43.727 4.386-68.475 5.734-36.727-9.313-54.982-22.945-63.83-2.986-1.938-4.71-5.052-4.732-8.544-0.021-3.344 1.574-6.333 4.378-8.202l.34-.227c2.629-1.752 5.987-2.141 8.986-1.04 6.863,2.52 16.906,9.271 24.512,20.66 9.542,14.285 12.811,31.878 9.718,52.29-1.21,7.988-2.154,15.527-2.893,22.645-0.473-0.069-0.957-0.08-1.443-0.015-3.051,0.403-4.234,3.057-4.622,3.929l-.053,.131c-0.917,1.64-0.973,3.606-0.153,5.26 0.909,1.833 2.778,3.077 5.13,3.424-3.383,45.502 2.097,71.371 2.393,72.61zm61.302,198.855h-12.994v-70.609c5.009-2.531 13.431-7.245 22.055-14.05l-9.061,84.659zm119.671-135.239c-2.436-0.63-9.951-1.505-9.951-1.505 2.571-3.742 4.004-3.907 10.089-4.556 2.638-0.281 5.922-0.631 10.1-1.387 0.108-0.02 0.216-0.043 0.322-0.069 3.612-0.904 9.936-1.196 11.909,0.639 0.735,0.683 0.928,2.069 0.574,4.123-1.44,8.357-0.27,13.616 0.67,17.841 0.157,0.705 0.305,1.377 0.437,2.038-6.012-7.501-14.482-14.625-24.15-17.124zm117.096,15.096c-3.154-0.445-8.236-1.616-9.418-3.998-1.144-2.305-0.052-6.756 2.996-12.209l.134-.238c2.751-4.924 9.562-17.104 14.403-20l-8.115,36.445zm-2.149,9.831l-24.464,110.312h-19.571l8.697-83.642c0.43-4.139-2.577-7.844-6.716-8.274-4.147-0.432-7.844,2.578-8.275,6.716l-8.858,85.2h-19.616v-84.173c0-6.493-1.182-12.807-3.362-18.699 3.033-9.143 1.868-14.39 0.739-19.464-0.863-3.882-1.679-7.549-0.575-13.952 1.205-6.991-1.314-11.033-3.639-13.192-6.634-6.162-18.905-3.569-21.004-3.067-3.747,0.673-6.656,0.983-9.228,1.257-8.627,0.919-13.039,1.793-19.022,11.517-0.297,0.482-0.479,0.997-0.598,1.519l-66.65-9.502c-2.241-0.319-4.513,0.386-6.177,1.925s-2.549,3.744-2.407,6.006c2.231,35.701-46.899,57.319-47.388,57.53-2.77,1.187-4.567,3.912-4.567,6.926v75.371h-12.822c-7.383-25.507-37.025-137.095-7.395-189.964 7.51-13.399 18.05-21.615 32.223-25.117 78.646-19.433 153.492-36.001 183.836-42.61 2.179,5.522 4.825,11.045 8.028,16.335 15.175,25.06 38.325,38.306 66.946,38.306 4.343,0 8.554-0.301 12.63-0.885l-8.137,36.69c-9.326,0.805-18.216,12.655-25.538,25.756l-.133,.238c-4.897,8.762-5.982,16.022-3.226,21.577 2.51,5.058 8.201,8.223 16.269,9.36zm8.134-107.81c-15.393,0-28.355-4.523-39.095-13.483 8.34-17.3 21.09-21.771 27.053-22.94 0.199,3.989 4.488,9.124 8.018,12.336v9.268h-6.187c-2.219,0-4.019,1.799-4.019,4.019 0,2.219 1.8,4.019 4.019,4.019h20.411c2.219,0 4.019-1.8 4.019-4.019 0-2.22-1.8-4.019-4.019-4.019h-6.187v-9.268c3.604-3.146 8.572-7.783 8.912-12.095 5.963,1.169 18.167,5.728 26.507,23.028-9.783,7.925-22.643,13.154-39.432,13.154zm46.979-20.435c-10.712-19.597-26.416-24.709-34.074-26.034 1.403-9.088 5.183-16.599 11.311-22.387 13.983-13.208 36.526-14.477 44.088-14.511 0.031,0.857 0.05,1.726 0.05,2.615-0.001,13.842-4.67,41.289-21.375,60.317zm21.659-100.59c-2.317-2.268-4.828-4.229-7.475-5.931 9.161-6.152 17.395-10.209 20.226-9.554 0.669,0.356 1.394,0.976 1.83,2.686 1.109,4.352-0.609,13.089-6.166,24.158-2.229-4.243-5.027-8.042-8.415-11.359z"></path>
</svg>