<svg xmlns="http://www.w3.org/2000/svg" xmlns:xlink="http://www.w3.org/1999/xlink" version="1.1" viewBox="0 0 460 460" enable-background="new 0 0 460 460">
  <g>
    <path d="m136.411,360.361c6.708-8.732 11.735-19.202 12.511-31.367 0,0 36.187-8.75 48.527-9.412 22.801-1.225 30.909,21.586 32.649,34.268 2.623,19.116 7.357,55.188 7.404,55.55 0.485,3.693 3.632,6.454 7.356,6.454h49.83c2.948,0 5.616-1.746 6.798-4.446 0.384-0.878 33.696-77.234 65.097-162.4 8.508-2.775 16.333-6.245 23.226-10.386 23.841-14.323 36.443-35.949 36.443-62.538 0-6.779-0.44-13.549-1.249-20.242 24.28-4.964 34.996-19.162 34.996-44.926 0-34.644-29.361-50.15-58.459-50.15-9.042,0-18.329,0.004-26.24,1.795-17.125-12.131-37.795-18.413-61.202-18.413-23.129,0-43.65,6.319-60.752,18.516-8.007-1.895-17.475-1.898-26.689-1.898-29.098,0-58.459,15.507-58.459,50.15 0,1.741 0.05,3.428 0.149,5.065-32.727,3.576-73.645,11.305-113.964,27.625-24.289,9.832-40.664,26.941-48.669,50.851-11.441,34.174-5.684,81.353 17.113,140.225 16.732,43.207 36.395,76.184 37.224,77.567 1.34,2.235 3.756,3.604 6.363,3.604h59.995c3.942,0 7.196-3.082 7.408-7.019l2.594-48.473zm90.247-284.759c4.428,2.84217e-14 8.304,0.051 11.701,0.194-4.097,4.356-7.922,9.137-11.446,14.354-9.88,14.632-17.133,32.299-21.202,51.059-20.624-4.452-22.674-16.43-22.674-30.295 2.84217e-14-33.61 36.337-35.312 43.621-35.312zm-123.834,325.414l-2.764-11.481c5.056-2.633 12.809-7.128 20.665-13.42l-1.345,24.9h-16.556zm93.942-96.276c-14.419,0.309-56.658,10.852-56.658,10.852-3.66,0.709-6.225,4.024-5.992,7.745 2.144,34.306-45.12,55.106-45.589,55.309-3.325,1.425-5.137,5.039-4.291,8.555l3.326,13.817h-16.87c-12.251-21.565-73.437-134.563-50.909-201.85 6.658-19.887 19.798-33.563 40.168-41.808 38.964-15.772 79.145-23.19 111.128-26.61 4.635,13.506 15.02,21.601 32.159,25.096-0.837,6.703-1.292,13.473-1.292,20.239 0,24.237 10.476,44.347 30.386,58.564-3.098,15.088-3.354,37.629 12.142,61.025 20.234,30.551 26.9,48.942 29.157,57.095l-11.22,48.249h-11.046c-1.492-11.331-4.613-34.941-6.567-49.183-4.044-29.49-23.242-47.627-48.032-47.095zm109.688-81.236h-2.827c-2.732,0-4.946,2.214-4.946,4.946 0,2.732 2.214,4.946 4.946,4.946h20.946c2.732,0 4.946-2.214 4.946-4.946 0-2.732-2.214-4.946-4.946-4.946h-3.144c7.716-3.765 12.015-13.363 14.404-22.577 1.875,2.481 2.996,5.56 2.996,8.904v30.412c-7.893,1.141-16.181,1.736-24.729,1.736-8.548,0-16.836-0.595-24.729-1.736v-30.412c0-3.158 0.997-6.085 2.686-8.493 2.281,9.092 6.523,18.458 14.397,22.166zm7.646-13.178c-5.312,0-9.863-16.589-9.863-30.169 0-0.787 0.131-1.089 0.125-1.089 0.225-0.236 1.733-1.384 9.738-1.384 8.026,0 9.522,1.154 9.717,1.355 0.002,0.003 0.146,0.296 0.146,1.118 0,3.662-0.892,12.269-3.282,19.773-2.431,7.627-5.267,10.396-6.581,10.396zm-30.842,137.565c-3.099-10.109-11.392-28.775-30.536-57.679-12.436-18.776-13.34-36.885-11.369-49.899 19.244,10.655 44.902,16.504 72.747,16.504 12.202,0 23.975-1.137 34.984-3.293-3.901,10.454-7.115,21.03-11.664,30.709-15.688,33.382-42.564,54.097-54.162,63.658zm38.259-23.279c-14.914,37.176-27.134,65.808-31.701,76.404h-12.173l10.036-43.25c6.527-5.156 20.83-18.107 33.838-33.154zm60.652-98.709c-9.35,5.618-20.744,9.854-33.449,12.569v-28.641c0-8.433-4.246-15.887-10.71-20.351 0.699-5.368 0.789-9.194 0.789-9.324 0-17.31-18.591-17.31-24.7-17.31s-24.7,0-24.7,17.31c0,0.516 0.022,4.293 0.595,9.457-6.355,4.478-10.516,11.869-10.516,20.218v28.641c-12.705-2.715-24.099-6.951-33.449-12.569-19.406-11.659-29.247-28.421-29.247-49.819 0-39.487 19.342-113.268 91.642-116.943v71.558c0,2.732 2.214,4.946 4.946,4.946 2.732,0 4.946-2.214 4.946-4.946v-71.63c73.35,2.649 93.098,74.33 93.098,117.015 0.002,21.398-9.839,38.16-29.245,49.819zm40.433-84.726c-3.975-18.846-11.083-36.496-20.772-50.996-3.5-5.238-7.316-10.036-11.417-14.406 3.26-0.126 6.946-0.172 11.128-0.172 7.284,0 43.621,1.702 43.621,35.313 0.001,13.836-2.054,25.788-22.56,30.261z"></path>
    <path d="m261.94,179.136c-1.948,0-3.868,0.791-5.252,2.176-1.376,1.375-2.167,3.294-2.167,5.242 0,1.948 0.791,3.868 2.167,5.242 1.384,1.385 3.304,2.176 5.252,2.176 1.949,0 3.858-0.791 5.242-2.176 1.385-1.375 2.176-3.294 2.176-5.242 0-1.948-0.791-3.868-2.176-5.242-1.384-1.385-3.293-2.176-5.242-2.176z"></path>
    <path d="m366.671,179.136c-1.948,0-3.867,0.791-5.242,2.176-1.384,1.375-2.176,3.294-2.176,5.242 0,1.948 0.792,3.868 2.176,5.242 1.376,1.385 3.294,2.176 5.242,2.176 1.959,0 3.868-0.791 5.243-2.176 1.384-1.375 2.175-3.294 2.175-5.242 0-1.948-0.791-3.868-2.175-5.242-1.375-1.385-3.284-2.176-5.243-2.176z"></path>
  </g>
</svg>