<svg xmlns="http://www.w3.org/2000/svg" xmlns:xlink="http://www.w3.org/1999/xlink" version="1.1" viewBox="0 0 460 460" enable-background="new 0 0 460 460">
  <g>
    <path d="m152.635,321.864c5.403-7.097 9.606-15.461 10.872-25.068 0,0 49.213,5.045 65.097,9.28 12.81,3.415 20.533,16.987 20.533,30.289 0,19.686 0,78.743 0,78.743 0,4.151 3.365,7.516 7.516,7.516h58.321c3.521,0 6.57-2.445 7.336-5.881l22.128-99.309c9.451-6.031 32.221-21.586 55.224-44.958 39.474-40.103 60.338-84.113 60.338-127.273 0-32.875-12.748-60.571-36.866-80.095-22.091-17.884-52.99-27.733-87.004-27.733s-64.913,9.849-87.004,27.733c-24.118,19.524-36.866,47.221-36.866,80.095 0,11.212 1.362,22.441 4.033,33.609-29.399,10.369-66.123,22.191-104.096,31.574-4.008,0.99-7.785,2.338-11.327,4.035-1.705-16.092-2.624-41.527 2.198-73.355 3.083-20.351-0.326-37.095-10.134-49.767-9.691-12.521-23.184-17.732-31.205-19.826 0.661-6.919-2.061-13.097-2.644-14.323-4.996-10.916-22.723-28.032-54.394-15.187-3.12,1.265-5.018,4.452-4.645,7.798 1.589,14.251 11.202,40.244 36.19,40.244 0.927,0 1.876-0.036 2.846-0.109 7.346-0.557 13.006-2.699 16.901-6.385 5.275,1.094 18.228,4.802 26.729,15.868 7.479,9.736 9.993,23.105 7.473,39.735-5.762,38.028-3.763,67.095-1.516,83.335-5.049,4.407-9.389,9.825-12.986,16.244-31.616,56.413 4.991,173.72 6.566,178.686 0.99,3.124 3.889,5.246 7.165,5.246h45.741c3.841,0 7.065-2.897 7.474-6.716l10.006-94.045zm-106.389-250.03c-0.95,1.625-3.975,2.745-8.301,3.073-14.02,1.062-19.697-12.793-21.816-21.007 21.127-5.91 28.501,7.877 29.298,9.532 0.049,0.114 0.01,0.026 0.064,0.137 0.777,1.664 2.047,6.055 0.755,8.265zm82.154,335.758h-9.171v-58.941c3.996-2.052 10.134-5.53 16.591-10.387l-7.42,69.328zm103.947-116.08c-18.351-4.672-74.976-10.775-74.976-10.775-2.238-0.319-4.501,0.386-6.161,1.92-1.66,1.534-2.542,3.734-2.401,5.99 1.869,29.908-39.646,48.192-40.056,48.369-2.764,1.184-4.556,3.902-4.556,6.909v63.669h-9.174c-6.649-23.175-31.173-117.053-6.221-161.558 6.298-11.233 15.13-18.12 27-21.053 38.131-9.422 75.032-21.275 104.698-31.718 9.483,27.676 27.04,54.756 52.119,80.013 23.862,24.032 47.474,39.495 56.257,44.884l-19.928,89.432h-14.735l7.978-70.595c0.466-4.125-2.5-7.847-6.625-8.313-4.125-0.46-7.846,2.501-8.313,6.625l-8.169,72.283h-14.914c0,0 0-53.42 0-71.227 0-19.811-12.626-39.968-31.823-44.855zm156.86-29.842c-22.093,22.504-44.475,37.72-53.131,43.253-8.67-5.4-31.008-20.242-53.058-42.51-25.422-25.673-55.726-66.849-55.726-117.21 0-64.102 54.663-92.795 108.838-92.795s108.838,28.693 108.838,92.795c-0.001,49.317-30.323,90.556-55.761,116.467z"></path>
    <path d="m394.452,124.213c-18.737-12.06-48.265-1.845-58.318,2.239-10.046-4.092-39.547-14.332-58.271-2.291-9.766,6.28-14.718,17.107-14.718,32.182 0,11.442 0,32.74 9.135,50.984 11.33,22.629 32.813,34.103 63.85,34.103 27.752,0 48.898-11.687 61.152-33.797 10.343-18.662 11.888-40.111 11.888-51.235 5.68434e-14-15.069-4.952-25.898-14.718-32.185zm-108.73,76.385c-7.544-15.067-7.544-33.338-7.544-44.254 0-9.759 2.552-16.147 7.804-19.531 3.7-2.384 8.567-3.297 13.814-3.297 7.217,0 15.143,1.729 21.747,3.731v16.015c0,10.985-2.27,21.978-6.563,31.792l-14.257,32.586c-0.002,0.004-0.002,0.009-0.004,0.013-6.388-4.17-11.379-9.828-14.997-17.055zm22.04,20.823c0.115-0.178 0.219-0.366 0.307-0.567l14.257-32.586c4.733-10.819 7.235-22.923 7.235-35.006v-13.242c1.316,0.517 2.492,1.01 3.45,1.445 1.974,0.9 4.248,0.9 6.224,0.006 0.964-0.436 2.138-0.93 3.464-1.448v13.24c0,12.082 2.502,24.187 7.235,35.006l14.017,32.039c-7.368,3.8-16.501,6.092-27.821,6.092-11.133-0.001-20.558-1.65-28.368-4.979zm63.047-5.441l-13.53-30.925c-4.293-9.814-6.563-20.807-6.563-31.792v-16.003c11.422-3.449 26.809-6.076 35.611-0.398 5.256,3.39 7.81,9.782 7.81,19.538-5.68434e-14,14.962-2.863,44.025-23.328,59.58z"></path>
    <path d="m367.86,171.42c-1.444,0-2.867,0.591-3.899,1.624-1.022,1.022-1.613,2.445-1.613,3.899 0,1.443 0.591,2.866 1.613,3.888 1.032,1.032 2.445,1.624 3.899,1.624 1.453,0 2.876-0.592 3.898-1.624 1.033-1.022 1.614-2.445 1.614-3.888 0-1.453-0.581-2.876-1.614-3.899-1.022-1.033-2.445-1.624-3.898-1.624z"></path>
    <path d="m304.392,182.444c1.453,0 2.876-0.581 3.898-1.613 1.033-1.022 1.614-2.445 1.614-3.899 0-1.443-0.581-2.866-1.614-3.888-1.022-1.033-2.445-1.613-3.898-1.613-1.443,0-2.867,0.581-3.889,1.613-1.032,1.022-1.623,2.445-1.623,3.888 0,1.453 0.591,2.876 1.623,3.899 1.022,1.031 2.446,1.613 3.889,1.613z"></path>
    <path d="m345.649,212.802h-5.511v-8.27c3.511-3.078 8.367-7.698 8.367-11.87 0-2.445-1.052-3.858-1.934-4.613-2.089-1.785-4.629-1.386-6.871-1.033-1.027,0.161-2.09,0.328-3.137,0.328-1.047,0-2.11-0.167-3.137-0.328-2.242-0.353-4.782-0.752-6.87,1.033-0.882,0.755-1.934,2.167-1.934,4.613 0,3.836 4.108,8.769 7.499,11.87v8.27h-5.511c-2.214,0-4.009,1.795-4.009,4.009 0,2.214 1.795,4.009 4.009,4.009h19.039c2.214,0 4.009-1.795 4.009-4.009 5.68434e-14-2.214-1.795-4.009-4.009-4.009z"></path>
    <path d="m264.909,119.432c-2.71-3.729-1.88-8.968 1.849-11.678 3.705-2.691 8.38-1.915 11.115,1.85 2.115,2.911 6.189,3.556 9.099,1.441 2.911-2.115 3.556-6.189 1.441-9.099-6.941-9.552-19.815-11.631-29.313-4.731-9.541,6.933-11.664,20.335-4.732,29.876 1.275,1.754 3.261,2.686 5.276,2.686 1.328,0 2.667-0.405 3.823-1.244 2.911-2.117 3.557-6.191 1.442-9.101z"></path>
    <path d="m421.712,111.172c-0.894-5.643-3.931-10.6-8.554-13.959-9.495-6.898-22.372-4.822-29.313,4.732-2.114,2.911-1.47,6.984 1.441,9.099 2.91,2.114 6.985,1.469 9.099-1.441 2.733-3.764 7.408-4.542 11.114-1.85 1.807,1.312 2.994,3.25 3.344,5.456 0.349,2.205-0.181,4.415-1.493,6.222-2.115,2.911-1.47,6.984 1.441,9.099 1.156,0.84 2.496,1.245 3.824,1.245 2.014,0 4.001-0.931 5.275-2.686 3.358-4.621 4.716-10.274 3.822-15.917z"></path>
  </g>
</svg>