<svg xmlns="http://www.w3.org/2000/svg" xmlns:xlink="http://www.w3.org/1999/xlink" version="1.1" viewBox="0 0 460 460" enable-background="new 0 0 460 460">
  <g>
    <path d="m300.327,403.181c1.912,0 3.75-0.735 5.136-2.053 2.332-2.219 52.242-50.573 92.936-155.366 1.261-0.681 2.497-1.382 3.701-2.106 22.937-13.78 35.06-34.587 35.06-60.173 0-7.637-0.556-15.27-1.62-22.776 14.559-7.954 24.46-23.405 24.46-41.132 0-25.832-21.015-46.847-46.847-46.847-7.465,0-14.522,1.765-20.789,4.887-17.218-13.686-38.525-20.797-62.929-20.797-24.152,0-45.345,7.169-62.576,20.971-6.355-3.231-13.536-5.06-21.141-5.06-12.828,0-24.464,5.186-32.932,13.567-25.164-2.86-71.752-3.181-132.75,18.297-39.11,13.771-60.526,29.05-71.607,51.09-12.137,24.138-11.201,55.551 3.036,101.853 26.223,85.283 63.328,140.106 64.894,142.399 1.389,2.031 3.69,3.246 6.151,3.246h56.822c3.32,0 6.24-2.197 7.159-5.387 0.054-0.187 5.421-18.825 8.642-30.762 2.96-10.97 10.107-24.008 22.967-24.559 16.361,0 22.51,18.5 23.721,24.174 3.698,17.322 5.908,30.21 5.93,30.338 0.612,3.579 3.714,6.196 7.344,6.196h85.232zm-54.609-315.551c3.233,0 6.344,0.506 9.286,1.406-3.31,3.691-6.426,7.681-9.329,11.98-8.607,12.746-15.136,27.891-19.189,44.041-7.716-5.835-12.713-15.083-12.713-25.481-0.001-17.615 14.33-31.946 31.945-31.946zm-137.452,300.65h-21.72c-8.248-12.94-38.836-63.568-60.838-135.123-24.842-80.789-5.573-108.744 46.331-129.647 10.639,6.962 51.547,38.762 40.983,110.134-12.945,87.455-5.096,151.978-4.756,154.636zm32.48-25.129c-2.123,7.868-5.197,18.711-7.03,25.13h-9.061c-2.043-12.607-0.089-22.697 5.824-30.021 3.821-4.732 9.373-8.399 16.567-11.015-2.555,4.565-4.673,9.875-6.3,15.906zm61.738-262.696c-19.019,20.454-43.466,54.206-32.569,107.366 5.749,28.046 17.083,81.878 26.031,124.227-5.047-2.92-12.237-4.54-18.401-4.46-25.633,0.332-45.705,7.133-56.822,19.208-0.592-26.859 0.364-65.878 7.038-110.97 7.061-47.703-7.042-79.583-20.117-97.926-6.481-9.093-13.329-15.831-18.951-20.525 49.843-16.959 89.464-18.541 113.791-16.92zm168.289,155.775c2.819-0.71 5.579-1.489 8.263-2.347-33.91,81.3-72.656,124.787-81.828,134.397h-28.257l10.163-37.975c1.063-3.975-1.296-8.06-5.272-9.123-3.971-1.063-8.059,1.295-9.123,5.271l-11.194,41.828h-30.444c-2.808-13.238-28.789-135.737-38.569-183.452-7.03-34.299 2.712-59.273 15.045-77.259 2.474,14.324 11.482,26.43 23.829,33.155-1.1,7.515-1.675,15.143-1.675,22.759 0,16.265 4.907,30.595 14.369,42.42 0.232,3.94 3.083,50.059 9.92,68.272 9.065,24.141 25.642,31.876 37.955,34.114 3.041,0.553 6.172,0.821 9.35,0.821 18.215,0 37.932-8.801 50.511-23.177 13.974-15.971 26.434-48.338 26.957-49.704zm-118.633-15.559c1.493,1.028 3.033,2.026 4.632,2.986 18.75,11.265 44.556,17.469 72.664,17.469 8.187,0 16.168-0.542 23.847-1.566-4.444,10.243-12.484,27.194-20.68,36.561-9.705,11.091-28.613,20.669-45.981,17.508-12.391-2.252-21.364-10.559-26.67-24.691-3.696-9.838-6.335-31.787-7.812-48.267zm142.287-9.787c-16.466,9.893-39.548,15.341-64.991,15.341-25.443,0-48.524-5.448-64.99-15.341-18.469-11.095-27.833-27.043-27.833-47.4 0-37.642 18.403-107.938 87.16-111.604v68.152c0,2.743 2.223,4.967 4.967,4.967 2.743,0 4.967-2.224 4.967-4.967v-68.221c69.761,2.682 88.554,70.982 88.554,111.673-0.002,20.357-9.366,36.305-27.834,47.4zm38.077-85.933c-3.964-16.186-10.355-31.287-18.786-43.905-2.915-4.363-6.057-8.41-9.408-12.147 2.811-0.813 5.773-1.27 8.843-1.27 17.615,0 31.946,14.331 31.946,31.946-5.68434e-14,10.342-4.95,19.536-12.595,25.376z"></path>
    <path d="m279.295,186.063c-1.957,0-3.875,0.795-5.265,2.185-1.391,1.381-2.186,3.298-2.186,5.265 0,1.957 0.794,3.874 2.186,5.265 1.39,1.391 3.308,2.186 5.265,2.186 1.966,0 3.884-0.795 5.274-2.186 1.381-1.391 2.176-3.308 2.176-5.265 0-1.967-0.794-3.884-2.176-5.265-1.39-1.39-3.308-2.185-5.274-2.185z"></path>
    <path d="m374.301,188.238c-1.38,1.391-2.175,3.318-2.175,5.275 0,1.957 0.794,3.884 2.175,5.265 1.391,1.391 3.308,2.186 5.275,2.186 1.957,0 3.874-0.795 5.265-2.186 1.38-1.381 2.176-3.308 2.176-5.265 0-1.967-0.795-3.884-2.176-5.275-1.391-1.381-3.308-2.175-5.265-2.175-1.967,0-3.884,0.795-5.275,2.175z"></path>
    <path d="m329.435,189.538c-11.697,0-20.518,5.265-20.518,12.246 0,5.95 6.417,10.64 15.552,11.9v14.97h-5.06c-2.743,0-4.967,2.224-4.967,4.967 0,2.743 2.223,4.967 4.967,4.967h20.055c2.743,0 4.967-2.224 4.967-4.967 0-2.743-2.223-4.967-4.967-4.967h-5.061v-14.97c9.135-1.26 15.553-5.95 15.553-11.9-0.001-6.981-8.823-12.246-20.521-12.246z"></path>
    <path d="m353.638,174.401c-4.005,4.005-7.591,11.35-1.93,23.603 4.051,8.768 11.288,16.514 14.212,19.438 5.499,5.499 12.811,8.528 20.588,8.528 7.777,0 15.089-3.029 20.587-8.528 5.499-5.499 8.529-12.811 8.529-20.588s-3.03-15.089-8.529-20.588c-5.353-5.354-15.252-8.888-26.479-9.454-11.724-0.593-21.564,2.175-26.978,7.589zm52.052,22.453c0,5.124-1.995,9.941-5.619,13.564-3.623,3.623-8.44,5.618-13.564,5.618-5.124,0-9.941-1.995-13.565-5.618-5.384-5.384-9.837-11.426-12.216-16.579-3.943-8.535-1.024-11.454-0.065-12.413 2.965-2.965 9.486-4.754 17.014-4.754 0.803,0 1.618,0.02 2.441,0.062 8.571,0.432 16.403,3.005 19.955,6.557 3.624,3.622 5.619,8.439 5.619,13.563z"></path>
    <path d="m305.233,174.401c-5.413-5.414-15.245-8.187-26.978-7.589-11.227,0.566-21.126,4.1-26.479,9.454-5.499,5.499-8.528,12.811-8.528,20.588s3.029,15.089 8.528,20.588c5.499,5.499 12.81,8.528 20.587,8.528 7.777,0 15.089-3.029 20.588-8.528 13.374-13.373 23.622-31.702 12.282-43.041zm-19.305,36.017c-3.623,3.623-8.441,5.618-13.565,5.618-5.124,0-9.941-1.995-13.564-5.618-3.623-3.623-5.618-8.44-5.618-13.564s1.995-9.941 5.618-13.564c3.552-3.552 11.384-6.125 19.955-6.557 0.824-0.042 1.637-0.062 2.441-0.062 7.528,0 14.05,1.79 17.014,4.754 6.609,6.609-5.144,21.855-12.281,28.993z"></path>
  </g>
</svg>