<svg xmlns="http://www.w3.org/2000/svg" xmlns:xlink="http://www.w3.org/1999/xlink" version="1.1" viewBox="0 0 480.745 480.745" enable-background="new 0 0 480.745 480.745">
  <g>
    <path d="m470.372,268.879c0-17.832-3.445-43.027-19.347-64.054 6.929-8.409 13.209-19.735 8.832-32.597-2.499-7.341-9.954-13.444-18.994-15.549-9.135-2.124-17.944,0.229-24.176,6.46-3.268,3.267-6.38,7.481-8.976,12.109-10.719-3.215-22.666-4.84-35.809-4.84-12.936,0-24.883,1.709-35.672,5.042-2.582-4.637-5.719-8.919-9.113-12.312-6.231-6.232-15.04-8.587-24.179-6.46-9.039,2.105-16.493,8.208-18.991,15.548-4.423,12.999 2.039,24.43 9.056,32.866-1.513,2.005-2.939,4.096-4.286,6.257-11.596-3.766-42.446-12.586-78.162-13.007-8.508-0.099-16.69,0.309-24.557,1.181l22.603-13.562c19.404-11.642 32.717-30.236 37.488-52.356s0.304-44.548-12.576-63.154l-46.51-67.18c-1.79-2.588-4.992-3.801-8.049-3.052-3.056,0.75-5.333,3.308-5.724,6.431l-6.01,48.082c-2.257,18.067-13.329,33.715-29.616,41.859l-77.89,38.945c-24.965,12.483-42.341,35.357-47.669,62.756s2.207,55.117 20.675,76.046l37.463,42.458c-0.415,24.623 5.214,53.177 16.889,85.438 15.064,41.626 34.642,73.566 35.468,74.905 1.383,2.241 3.828,3.606 6.461,3.606h40.484c4.193,0 7.591-3.399 7.591-7.591v-23.447c0-10.79 8.778-19.567 19.568-19.567h66.798c10.789,0 19.567,8.778 19.567,19.567v23.447c0,4.192 3.398,7.591 7.591,7.591h30.7c1.173,0 2.331-0.272 3.381-0.795 0.737-0.367 18.311-9.26 40.063-33.192 19.712-21.686 46.969-60.627 64.975-123.029 26.986-16.736 40.653-35.159 40.653-54.85zm-32.282,29.946c-10.155-11.04-30.162-29.283-54.707-33.909-1.678-3.964-2.008-7.642-0.934-10.959 1.241-3.83 4.111-6.703 6.624-8.604 28.392,2.777 53.329,12.288 66.028,25.551-0.8,10.107-7.502,19.539-17.011,27.921zm-117.39,28.813c23.154,12.768 48.043,20.918 49.002,21.208 0.718,0.217 1.46,0.326 2.201,0.326s1.484-0.109 2.201-0.326c0.813-0.246 17.335-5.301 36.461-14.621-4.793,14.418-8.947,27.946-15.557,38.902-16,26.519-48.023,38.082-59.978,42.689-2.057-9.117-7.289-28.347-19.428-56.026-8.152-18.585 0.265-28.366 5.098-32.152zm43.612-141.834v24.206c0,4.192 3.398,7.591 7.591,7.591 4.193,0 7.591-3.399 7.591-7.591v-24.212c54.813,3.008 70.369,39.181 74.412,65.836-19.711-13.249-49.698-21.286-82.003-21.286-32.226,0-62.143,7.998-81.856,21.189 4.131-25.232 19.449-62.621 74.265-65.733zm10.163,78.073c-0.854-0.037-1.709-0.071-2.572-0.071-1.005,0-2.002,0.033-2.996,0.082 1.108-4.324 1.017-8.505-0.292-12.497-0.842-2.567-2.122-4.807-3.59-6.741 2.279-0.088 4.573-0.134 6.877-0.134 2.166,0 4.321,0.043 6.465,0.122-1.472,1.936-2.755,4.18-3.599,6.753-1.306,3.989-1.398,8.166-0.293,12.486zm-20.119-18.484c2.493,1.898 5.329,4.749 6.565,8.521 1.1,3.352 0.76,7.073-0.957,11.087-24.335,4.765-44.156,22.853-54.248,33.824-9.51-8.382-16.212-17.815-17.012-27.921 12.643-13.204 37.417-22.686 65.652-25.511zm12.277,86.474c-3.258-1.148-6.818-2.505-10.63-4.053-3.095-3.465-4.847-7.859-4.847-12.407 0-5.592 2.567-10.623 6.64-14.162-0.036,0.284-0.061,0.572-0.061,0.865 0,4.06 3.534,7.256 8.899,8.518v21.239zm10.12,.152v-21.298c5.599-1.191 9.318-4.446 9.318-8.611 0-0.294-0.025-0.581-0.061-0.865 4.073,3.539 6.64,8.57 6.64,14.162 0,4.548-1.752,8.942-4.848,12.407-3.984,1.618-7.677,3.025-11.049,4.205zm25.348-10.522c0.44-1.988 0.67-4.028 0.67-6.09 0-16.261-13.848-29.49-30.869-29.49-17.021,0-30.869,13.229-30.869,29.49 0,2.062 0.229,4.102 0.67,6.09-8.35-4.003-16.938-8.715-24.713-14.005 10.48-11.225 31.2-29.516 54.912-29.516 23.712,0 44.432,18.291 54.912,29.516-7.775,5.29-16.363,10.002-24.713,14.005zm25.321-147.622c2.174-2.175 4.779-2.766 6.967-2.766 1.174,0 2.229,0.17 3.031,0.357 4.174,0.971 7.377,3.637 8.063,5.653 1.731,5.085-0.378,10.407-4.884,16.311-5.548-5.014-11.758-9.216-18.614-12.598 1.535-2.47 3.338-4.859 5.437-6.957zm-129.1,3.243c0.685-2.016 3.888-4.681 8.061-5.653 0.804-0.187 1.858-0.357 3.033-0.357 2.187,0 4.793,0.591 6.967,2.766 1.971,1.971 3.888,4.507 5.579,7.274-6.819,3.408-13.018,7.609-18.535,12.578-4.662-6.023-6.865-11.436-5.105-16.608zm-175.297,43.72l-54.483-72.743 60.802-30.401 50.752,67.67-46.525,27.915c-3.736,2.241-7.258,4.775-10.546,7.559zm59.259-164.223l3.545-28.368 35.204,50.849c10.465,15.116 14.093,33.339 10.218,51.311-2.331,10.807-7.187,20.565-14.104,28.695l-50.178-66.904c8.251-10.012 13.652-22.283 15.315-35.583zm-22.407,42.995l50.052,66.736c-2.826,2.422-5.868,4.639-9.137,6.6l-11.971,7.183-50.276-67.035 5.849-2.924c5.691-2.847 10.881-6.414 15.483-10.56zm-44.878,127.238c-7.784,6.11-14.784,13.173-20.95,21.181l-55.734-74.311c5.555-8.198 12.758-15.23 21.283-20.679l55.401,73.809zm-42.866,69.213l-28.03-31.767c-15.325-17.368-21.578-40.368-17.156-63.104 1.223-6.291 3.215-12.293 5.891-17.906l55.085,73.447c-2.166,3.358-4.22,6.84-6.129,10.476-4.572,8.708-7.783,18.34-9.661,28.854zm89.759,169.503h-6.218c-1.313-8.048-2.764-17.516-2.902-20.135-0.297-5.638 0.544-9.416 2.568-11.55 2.171-2.289 6.416-3.523 12.577-3.702-3.8,5.57-6.025,12.295-6.025,19.531v15.856zm162.894-49.039l-24.459,49.039h-2.139v-15.856c0-19.161-15.588-34.749-34.748-34.749h-93.957c-11.519,0-19.748,2.771-25.156,8.471-5.046,5.318-7.242,12.775-6.714,22.796 0.173,3.286 1.553,12.326 2.681,19.337h-6.965c-12.163-21.021-70.966-128.697-38.093-191.299 21.451-40.849 60.05-61.266 114.753-60.743 31.369,0.311 59.431,7.766 71.724,11.556-5.402,13.095-8.281,28.003-8.281,43.802 0,19.116 12.886,37.035 38.33,53.378-6.8,6.793-14.812,20.21-5.43,41.599 11.125,25.366 16.275,43.515 18.454,52.669zm29.354,19.323c-16.516,18.336-30.422,27.177-34.795,29.715h-2.178l18.862-39.296c7.233-2.574 24.881-9.646 42.302-22.67-8.531,13.545-16.915,24.173-24.191,32.251z"></path>
    <path d="m326.868,273.266c1.994,0 3.947-0.81 5.364-2.227 1.417-1.407 2.227-3.37 2.227-5.364 0-1.994-0.809-3.957-2.227-5.364-1.417-1.417-3.37-2.226-5.364-2.226-2.004,0-3.957,0.809-5.375,2.226-1.406,1.407-2.216,3.37-2.216,5.364 0,1.994 0.809,3.957 2.216,5.364 1.417,1.417 3.37,2.227 5.375,2.227z"></path>
    <path d="m416.944,258.084c-2.004,0-3.957,0.809-5.375,2.226-1.406,1.407-2.216,3.36-2.216,5.364 0,2.004 0.809,3.957 2.216,5.364 1.417,1.417 3.37,2.227 5.375,2.227 1.994,0 3.947-0.81 5.364-2.227 1.417-1.407 2.227-3.37 2.227-5.364 0-2.004-0.809-3.957-2.227-5.364-1.417-1.416-3.37-2.226-5.364-2.226z"></path>
  </g>
</svg>