<svg xmlns="http://www.w3.org/2000/svg" xmlns:xlink="http://www.w3.org/1999/xlink" version="1.1" viewBox="0 0 460 460" enable-background="new 0 0 460 460">
  <g>
    <path d="m188.624,332.416c13.235,0 25.211,10.747 25.211,23.983v41.939c0,4.115 3.335,7.451 7.451,7.451h104.846c2.4,0 4.654-1.156 6.053-3.106 2.127-2.964 51.28-72.086 73.147-155.945 5.637-2.236 10.905-4.806 15.722-7.7 23.875-14.343 36.494-35.999 36.494-62.626 0-17.19-2.696-33.712-7.792-48.677 13.572-29.16 9.827-59.053 9.617-60.617-0.497-3.699-3.652-6.46-7.385-6.46-17.824,0-32.27,4.964-43.396,11.206-17.443-11.624-38.859-17.652-63.341-17.652-25.068,0-46.99,6.51-64.759,19.038-11.416-6.876-26.637-12.593-45.76-12.593-3.732,0-6.888,2.761-7.385,6.46-0.161,1.201-2.41,19.093 2.691,40.532-22.035-0.446-67.33,1.235-135.567,16.048-46.864,10.173-74.455,26.051-86.831,49.97-13.193,25.498-9.418,59.58 12.238,110.508 30.225,71.076 61.598,116.517 62.918,118.417 1.393,2.003 3.678,3.198 6.118,3.198h68.414c4.115,0 7.451-3.336 7.451-7.451v-41.939c-0.001-12.778 11.242-23.273 23.845-23.984zm256.399-256.545c0.172,7.148-0.291,19.146-3.902,32.092-2.485-4.546-5.234-8.863-8.241-12.911-3.499-4.71-7.329-9.02-11.459-12.938 6.697-3.051 14.559-5.422 23.602-6.243zm-203.33-.004c10.431,0.934 19.276,3.899 26.561,7.598-3.599,3.543-6.967,7.397-10.09,11.556-4.164,5.547-7.841,11.576-11.019,17.984-5.048-14.824-5.646-29.075-5.452-37.138zm-91.816,280.532v34.488h-15.246l-1.488-7.44c-2.914-14.567-1.009-26.143 5.663-34.405 3.708-4.591 8.945-8.237 15.654-10.939-2.921,5.458-4.583,11.686-4.583,18.296zm39.954-38.905c-28.146,0.75-51.355,8.239-62.617,22.187-9.448,11.701-12.45,27.846-8.682,46.688l.903,4.517h-26.547c-7.607-11.536-34.16-53.433-59.296-112.544-19.493-45.838-23.533-76.924-12.717-97.828 10.178-19.671 34.567-33.098 76.756-42.256 72.453-15.729 118.808-16.221 137.168-15.517 1.312,3.279 2.828,6.568 4.578,9.829-4.213,13.707-6.426,28.536-6.426,43.841 0,26.627 12.619,48.282 36.494,62.626 19.555,11.748 46.475,18.217 75.804,18.217 15.269,0 29.872-1.769 43.135-5.107-19.545,67.53-56.84,125.008-66.16,138.74h-38.577l20.365-69.677c1.154-3.949-1.112-8.087-5.062-9.241-3.951-1.158-8.087,1.112-9.241,5.061l-21.586,73.858h-39.388v-34.488c-2.84217e-14-21.453-17.452-38.906-38.904-38.906zm223.548-91.229c-17.27,10.375-41.466,16.089-68.129,16.089-26.665,0-50.859-5.714-68.129-16.089-19.421-11.667-29.267-28.44-29.267-49.853 0-49.498 25.508-107.299 97.397-107.299s97.396,57.801 97.396,107.299c-0.002,21.413-9.848,38.185-29.268,49.853z"></path>
    <path d="m304.671,170.587c0-1.957-0.795-3.884-2.185-5.265-1.381-1.391-3.298-2.185-5.266-2.185-1.957,0-3.874,0.795-5.265,2.185-1.39,1.381-2.186,3.298-2.186,5.265 0,1.957 0.796,3.884 2.186,5.265 1.391,1.391 3.308,2.186 5.265,2.186 1.967,0 3.884-0.795 5.266-2.186 1.391-1.381 2.185-3.308 2.185-5.265z"></path>
    <path d="m393.273,163.137c-1.957,0-3.884,0.795-5.265,2.185-1.391,1.381-2.186,3.298-2.186,5.265 0,1.967 0.795,3.884 2.186,5.265 1.38,1.391 3.297,2.186 5.265,2.186 1.966,0 3.884-0.795 5.275-2.186 1.381-1.38 2.176-3.308 2.176-5.265 0-1.957-0.795-3.884-2.176-5.265-1.391-1.391-3.308-2.185-5.275-2.185z"></path>
    <path d="m368.564,162.687c-8.325-14.362 4.23-49.223 14.099-67.823 1.423-2.681 1.079-5.958-0.872-8.284-1.953-2.327-5.122-3.236-8.009-2.297-31.347,10.179-53.554,27.955-62.53,50.052-6.444,15.862-5.597,32.934 2.384,48.072 5.204,9.871 19.416,11.28 25.284,11.427 0.45,0.011 0.904,0.017 1.362,0.017 10.8,0 23.721-3.191 29.091-12.244 1.917-3.236 4.364-9.996-0.809-18.92zm-12.892,7.473c0.711,1.227 1.444,2.889 0.89,3.835-1.443,2.466-8.266,5.062-16.789,4.952-8.377-0.108-12.484-2.631-12.956-3.489-5.895-11.183-6.52-23.796-1.76-35.516 5.665-13.946 18.355-25.948 36.436-34.736-7.542,18.551-16.06,47.288-5.821,64.954z"></path>
    <path d="m309.152,196.781c-1.938-1.939-5.085-1.939-7.024,0-1.94,1.94-1.94,5.085 0,7.025l9.902,9.902c0.969,0.97 2.241,1.455 3.512,1.455 1.271,0 2.543-0.485 3.512-1.455 1.94-1.94 1.94-5.085 0-7.025l-9.902-9.902z"></path>
    <path d="m381.346,196.781l-9.902,9.902c-1.94,1.94-1.94,5.085 0,7.025 0.969,0.97 2.241,1.455 3.512,1.455 1.271,0 2.543-0.485 3.512-1.455l9.902-9.902c1.94-1.94 1.94-5.085 0-7.025-1.938-1.939-5.085-1.939-7.024,0z"></path>
  </g>
</svg>