<svg xmlns="http://www.w3.org/2000/svg" xmlns:xlink="http://www.w3.org/1999/xlink" version="1.1" viewBox="0 0 460 460" enable-background="new 0 0 460 460">
  <g>
    <path d="m400.484,350.024c23.257,0 42.746-18.91 42.746-42.167 0-9.171-2.957-17.989-8.4-25.254 2.815-9.992 4.294-19.854 4.294-28.74 0-12.504-3.814-22.115-11.58-29.17v-25.263c0-8.874-4.469-16.441-11.121-18.83-5.351-1.923-11.123-0.151-15.057,4.622l-6.984,8.471c-3.685,4.47-6.303,10.323-7.615,16.792-6.552-0.627-13.83-0.935-21.922-0.935-7.148,0-14.514,0.217-21.704,0.905-1.315-6.456-3.929-12.299-7.608-16.761l-6.984-8.471c-3.936-4.772-9.705-6.544-15.058-4.622-6.652,2.389-11.121,9.956-11.121,18.83v25.286c-7.296,6.576-11.804,15.917-11.804,29.148 0,2.276 0.1,4.61 0.275,6.979-24.768,0.745-71.175,4.639-113.98,21.965-5.646,2.286-10.69,5.061-15.136,8.305 0.572-23.085 10.226-44.328 27.316-59.99l72.377-66.33c20.465-18.756 31.905-44.372 32.21-72.13 0.306-27.758-10.567-53.621-30.614-72.822-0.072-0.069-0.145-0.136-0.219-0.202-15.934-14.082-36.388-20.982-57.587-19.424-21.203,1.555-40.428,11.362-54.134,27.615-32.687,38.76-75.845,90.01-95.83,114.056-28.281,34.026-41.709,71.269-37.812,104.867 3.095,26.687 17.121,50.142 40.562,67.829 0.064,0.049 0.13,0.096 0.196,0.143l83.685,58.97c10.274,41.514 36.286,80.677 37.857,83.015 1.381,2.056 3.695,3.289 6.172,3.289h47.217c2.093,0 4.089-0.882 5.499-2.43 1.409-1.548 2.1-3.618 1.904-5.702l-3.713-39.434c4.055-5.466 7.188-11.862 8.256-19.169h38.221c6.255,0 12.441,2.75 16.548,7.356 2.307,2.588 4.92,6.867 4.266,12.559-1.173,10.199-8.932,29.755-11.821,36.43-0.995,2.298-0.767,4.943 0.607,7.036 1.375,2.093 3.711,3.354 6.215,3.354h52.061c2.954,0 5.629-1.749 6.812-4.456 0.254-0.585 21.538-49.372 42.508-105.52zm-96.222-42.167c0-5.918 1.862-11.547 5.383-16.28 1.438-1.932 1.851-4.44 1.109-6.73-3.009-9.287-4.785-18.55-5.212-27.049l15.349,5.116c10.853,3.617 19.647,11.244 24.762,21.476l11.511,23.022c-2.679,1.262-4.336,3.205-4.336,5.464 0,2.819 3.06,8.754 7.555,11.38v11.04c0,2.112 1.472,3.872 3.444,4.334-6.06-0.177-12.047-1.909-17.81-5.197-1.134-0.647-2.405-0.977-3.685-0.977-0.774,0-1.55,0.121-2.302,0.365-2.735,0.891-5.582,1.342-8.461,1.342-15.057,0.001-27.307-12.249-27.307-27.306zm1.667-60.124c2.204-12.262 12.937-22.513 53.958-23.269v8.946c0,2.737 2.219,4.957 4.957,4.957s4.957-2.219 4.957-4.957v-8.947c42.731,0.766 52.176,11.553 54.035,23.269l-18.174,5.778c-13.365,4.455-24.195,13.848-30.494,26.447l-10.324,20.647-10.323-20.647c-6.3-12.6-17.13-21.993-30.495-26.448l-18.097-5.776zm99.926-44.582c1.979-3.318 6.818-7.485 6.818-3.722v16.497c-3.366-1.273-7.071-2.356-11.176-3.24 0.859-3.771 2.749-6.836 4.358-9.535zm-88.616-3.722c0-3.762 4.594-0.325 6.818,3.722 1.513,2.754 3.499,5.766 4.358,9.538-3.903,0.855-7.654,1.929-11.176,3.272v-16.532zm-250.383,103.212c-20.347-15.385-32.005-34.763-34.654-57.601-3.424-29.521 8.821-62.78 34.477-93.648 19.957-24.012 63.091-75.233 95.761-113.974 11.104-13.166 26.678-21.111 43.854-22.371 17.131-1.256 33.649,4.296 46.54,15.636 16.976,16.316 26.182,38.263 25.922,61.815-0.26,23.602-9.986,45.383-27.388,61.331l-72.377,66.33c-20.343,18.643-32.068,45.162-32.17,72.756-0.016,4.354 0.266,8.682 0.82,12.96-2.88,4.437-5.153,9.328-6.792,14.676-3.088,10.077-3.684,21.108-2.614,32.39l-71.379-50.3zm146.547,142.488l-1.921-11.702c3.126-1.694 7.305-4.199 11.661-7.497l1.808,19.199h-11.548zm97.53-54.404c-6.884-7.721-17.22-12.331-27.647-12.331h-45.322c-2.052,0-4.014,0.849-5.419,2.344-1.405,1.496-2.13,3.506-2.002,5.555 1.384,22.148-29.911,35.955-30.216,36.087-3.143,1.347-4.962,4.664-4.408,8.038l2.415,14.711h-8.37c-9.524-15.179-47.43-79.358-34.891-120.236 4.059-13.234 13.011-22.492 27.366-28.302 41.268-16.704 87.314-20.233 110.533-20.878 0.707,3.388 1.548,6.803 2.556,10.225-4.025,6.59-6.136,14.093-6.136,21.919 0,14.04 6.902,26.491 17.484,34.161-0.424,9.463 1.49,21.122 9.421,33.097 10.65,16.08 15.633,26.846 17.961,33.221l-13.525,36.793h-10.61c3.388-8.86 7.743-21.497 8.75-30.251 1.001-8.71-1.819-17.287-7.94-24.153zm35.342,54.404h-9.511l11.092-28.507c3.737-2.939 9.82-8.033 16.497-14.888-8.25,20.356-14.942,36.097-18.078,43.395zm-2.041-38.358c-2.401-7.166-7.751-19.132-19.672-37.131-5.21-7.866-7.264-15.549-7.719-22.264 4.587,1.715 9.548,2.658 14.727,2.658 3.343,0 6.659-0.395 9.895-1.176 7.513,3.769 15.363,5.677 23.38,5.677 6.652,0 13.246-1.473 19.692-4.344-2.277,6.042-4.136,12.171-6.791,17.776-8.846,18.67-25.284,31.973-33.512,38.804zm56.819-71.607c-3.57,0-7.049-0.684-10.341-2.032-2.214-0.907-4.73-0.693-6.759,0.576-5.981,3.738-12.056,5.711-18.073,5.916 1.962-0.469 3.425-2.222 3.425-4.328v-11.04c4.495-2.625 7.555-8.561 7.555-11.38 0-2.259-1.657-4.202-4.337-5.464l11.511-23.022c5.116-10.232 13.91-17.859 24.762-21.476l15.333-5.111c-0.418,7.549-1.997,15.84-4.652,24.244-0.804,2.545-0.182,5.326 1.63,7.286 4.677,5.059 7.252,11.638 7.252,18.524-1.13687e-13,15.057-12.249,27.307-27.306,27.307z"></path>
    <path d="m337.474,288.297c1.378-1.388 2.171-3.301 2.171-5.254 0-1.963-0.793-3.876-2.171-5.254-1.388-1.388-3.301-2.181-5.264-2.181-1.953,0-3.866,0.793-5.255,2.181-1.378,1.378-2.171,3.291-2.171,5.254 0,1.953 0.793,3.876 2.171,5.254 1.388,1.388 3.301,2.181 5.255,2.181 1.963,0 3.876-0.792 5.264-2.181z"></path>
    <path d="m396.758,275.608c-1.963,0-3.876,0.793-5.264,2.171-1.378,1.388-2.171,3.301-2.171,5.264 0,1.953 0.793,3.876 2.171,5.254 1.388,1.388 3.301,2.181 5.264,2.181 1.953,0 3.866-0.793 5.255-2.181 1.388-1.378 2.181-3.301 2.181-5.254 0-1.963-0.793-3.876-2.181-5.264-1.389-1.378-3.302-2.171-5.255-2.171z"></path>
  </g>
</svg>