<svg xmlns="http://www.w3.org/2000/svg" xmlns:xlink="http://www.w3.org/1999/xlink" version="1.1" viewBox="0 0 460 460" enable-background="new 0 0 460 460">
  <g>
    <path d="m270.797,117.416c-0.033,2.985-0.068,11.097-0.028,14.609 0,0.015-0.008,0.028-0.022,0.034-34.721,13.571-100.632,37.758-170.039,54.908-12.119,2.994-22.385,8.856-30.703,17.464-0.021,0.022-0.057,0.011-0.06-0.019-1.573-16.065-2.568-45.59 3.73-87.157 3.535-23.332-0.524-44.538-11.737-61.327-9.323-13.959-22.014-22.372-30.782-25.592-6.872-2.523-14.596-1.617-20.66,2.425l-.339,.227c-6.408,4.269-10.204,11.402-10.157,19.078 0.048,7.822 4.027,15.055 10.644,19.35 15.088,9.793 20.847,26.87 17.118,50.756-15.588,99.842 12.908,171.087 16.775,180.234 0.002,0.004 0.002,0.007 0.002,0.012 2.235,59.312 21.064,119.638 22.265,123.429 0.986,3.111 3.874,5.225 7.137,5.225h53.137c3.826,0 7.037-2.886 7.445-6.69l11.446-109.246c0.001-0.006 0.003-0.013 0.007-0.018 6.611-8.515 11.683-18.648 12.951-30.355 0,0 58.232,5.975 77.038,10.948 15.434,4.081 24.773,20.387 24.773,36.398v91.441c0,4.155 3.368,7.522 7.522,7.522h67.716c3.511,0 6.549-2.439 7.31-5.866l46.131-208.01c0.003-0.013 0.013-0.023 0.025-0.026 21.897-5.683 38.133-18.457 48.437-38.188 11.118-21.291 12.404-45.333 12.404-61.565 0-4.308-0.305-8.397-0.889-12.277-0.001-0.008 0-0.016 0.004-0.022 14.808-24.833 9.85-54.321 9.621-55.624-0.356-2.017-1.644-3.747-3.473-4.668-1.83-0.92-3.987-0.924-5.819-0.008l-34.763,17.381c-0.009,0.004-0.019,0.005-0.028,0.001-17.176-6.443-42.287-6.041-54.379-5.783-12.102-0.258-37.239-0.66-54.427,5.801-0.009,0.003-0.019,0.003-0.028-0.001l-34.799-17.4c-1.831-0.916-3.988-0.913-5.819,0.008-1.83,0.921-3.118,2.651-3.473,4.668-0.23,1.305-5.202,30.879 9.69,55.736 0.004,0.007 0.006,0.015 0.004,0.022-0.571,3.848-0.908,7.898-0.908,12.165zm176.17-56.653c0.16,6.63-0.355,16.12-3.393,25.729-0.01,0.03-0.051,0.034-0.065,0.006-2.391-4.577-5.398-8.67-9.044-12.24-1.702-1.667-3.506-3.174-5.385-4.549-0.021-0.016-0.018-0.047 0.005-0.059l17.831-8.916c0.023-0.012 0.051,0.003 0.051,0.029zm-89.472,98.593c-0.016-0.003-0.028,0.017-0.029,0-0.873-15.012-6.271-27.405-16.111-36.676-17.59-16.574-44.099-18.464-54.222-18.544-0.023,0-0.038-0.022-0.033-0.044 1.674-7.874 4.991-14.2 10.03-19.134 5.684-5.566 13.134-8.904 21.057-10.89 0.023-0.006 0.045,0.012 0.045,0.035v21.26c0,4.118 3.173,7.726 7.29,7.831 4.225,0.108 7.684-3.284 7.684-7.484v-23.496c0-0.164-0.014-0.325-0.025-0.486 4.426-0.352 8.752-0.456 12.761-0.456 2.493,0 4.857,0.04 7.053,0.084 0.019,0 0.034,0.016 0.034,0.035v50.994c0,4.118 3.173,7.726 7.29,7.831 4.225,0.108 7.684-3.284 7.684-7.484v-51.339c0-0.019 0.015-0.035 0.034-0.035 5.956-0.121 13.207-0.206 20.704,0.44-0.008,0.139-0.021,0.276-0.021,0.416v23.15c0,4.118 3.173,7.726 7.29,7.831 4.225,0.108 7.684-3.284 7.684-7.484v-21.4c0-0.023 0.022-0.041 0.045-0.035 7.62,2.008 14.757,5.307 20.248,10.683 5.04,4.934 8.356,11.26 10.03,19.133 0.005,0.022-0.011,0.044-0.033,0.044-10.055,0.069-36.662,1.921-54.306,18.544-9.875,9.305-15.278,21.591-16.121,36.676-0.001,0.017-0.014-0.002-0.03,0h-6.032zm-83.377-98.622l17.882,8.941c0.024,0.012 0.026,0.044 0.005,0.059-1.867,1.369-3.66,2.867-5.352,4.524-3.669,3.592-6.691,7.713-9.089,12.324-0.015,0.028-0.056,0.024-0.065-0.006-3.061-9.638-3.593-19.166-3.433-25.813 0.001-0.026 0.029-0.041 0.052-0.029zm-256.409-.204c-2.986-1.938-4.71-5.052-4.732-8.544-0.02-3.344 1.575-6.333 4.379-8.203l.339-.227c2.628-1.751 5.988-2.14 8.986-1.039 6.849,2.515 16.872,9.252 24.463,20.618 9.521,14.255 12.783,31.809 9.698,52.176-0.334,2.203-0.646,4.369-0.941,6.506-0.002,0.018-0.017,0.03-0.035,0.03h-9.771c-2.625,0-4.982,1.917-5.216,4.531-0.266,2.964 2.062,5.452 4.971,5.452h8.739c0.021,0 0.038,0.019 0.035,0.04-0.472,4.038-0.879,7.948-1.222,11.722-0.002,0.018-0.017,0.032-0.035,0.032h-7.271c-2.625,0-4.982,1.917-5.216,4.531-0.266,2.964 2.062,5.452 4.971,5.452h6.723c0.02,0 0.037,0.018 0.035,0.038-0.273,4.081-0.481,8-0.62,11.722-0.001,0.019-0.016,0.034-0.035,0.034h-5.858c-2.625,0-4.982,1.917-5.216,4.531-0.266,2.964 2.062,5.452 4.971,5.452h5.871c0.02,0 0.036,0.016 0.035,0.036-0.225,24.132 2.164,39.018 3.159,44.118 0.002,0.008 0,0.015-0.004,0.023-7.23,13.033-11.329,28.867-13.241,45.913-0.004,0.039-0.059,0.046-0.068,0.008-7.31-30.706-14.45-80.896-5.018-141.307 5.716-36.622-9.284-54.824-22.876-63.645zm102.61,355.568h-12.95c-0.02,5.68434e-14-0.035-0.016-0.035-0.035v-70.421c0-0.013 0.007-0.025 0.019-0.031 4.993-2.523 13.386-7.221 21.981-14 0.025-0.019 0.06,0 0.057,0.031l-9.036,84.425c-0.003,0.017-0.018,0.031-0.036,0.031zm119.337-134.907c-21.283-5.404-86.943-12.475-86.943-12.475-3.372-0.48-6.801,1.37-8.123,4.89-0.376,1-0.459,2.084-0.397,3.151 2.068,35.534-46.809,57.041-47.296,57.251-2.753,1.18-4.538,3.887-4.538,6.882v75.174c0,0.02-0.016,0.035-0.035,0.035h-12.776c-0.016,0-0.029-0.01-0.034-0.025-7.363-25.462-36.913-136.815-7.37-189.511 7.494-13.368 18.012-21.565 32.155-25.06 12.729-3.145 25.336-6.527 37.665-10.033 0.023-0.006 0.045,0.011 0.045,0.034v36.615c0,4.118 3.173,7.725 7.289,7.831 4.225,0.109 7.685-3.284 7.685-7.484v-41.338c0-0.016 0.01-0.029 0.025-0.034 6.859-2.042 13.598-4.112 20.199-6.189 0.023-0.007 0.046,0.01 0.046,0.034v58.928c0,4.118 3.173,7.725 7.289,7.831 4.225,0.109 7.685-3.284 7.685-7.484v-64.099c0-0.015 0.01-0.029 0.025-0.034 6.947-2.269 13.694-4.527 20.2-6.753 0.023-0.008 0.047,0.009 0.047,0.034v47.008c0,4.118 3.173,7.725 7.289,7.831 4.225,0.109 7.685-3.284 7.685-7.484v-52.583c0-0.015 0.01-0.028 0.024-0.033 17.131-6.051 32.107-11.669 44.062-16.294 0.022-0.008 0.045,0.006 0.047,0.029 1.721,16.719 6.759,35.35 21.058,49.808 15.051,15.218 37.894,22.934 67.896,22.934 4.446,0 8.73-0.208 12.859-0.614 0.024-0.002 0.043,0.019 0.037,0.043l-4.233,19.088c-0.004,0.016-0.018,0.028-0.035,0.028h-25.01c-4.118,0-7.725,3.172-7.831,7.289-0.109,4.225 3.283,7.685 7.484,7.685h22.02c0.023,0 0.04,0.021 0.035,0.043l-3.908,17.62c-0.004,0.016-0.018,0.028-0.035,0.028h-28.653c-4.118,0-7.725,3.172-7.831,7.289-0.109,4.225 3.283,7.685 7.484,7.685h25.664c0.023,0 0.04,0.021 0.035,0.043l-28.667,129.265c-0.004,0.016-0.018,0.028-0.035,0.028h-19.51c-0.021,0-0.037-0.018-0.035-0.039l8.673-83.423c0.427-4.112-2.56-7.793-6.673-8.221-4.127-0.427-7.793,2.56-8.221,6.673l-8.835,84.979c-0.002,0.018-0.017,0.032-0.035,0.032h-19.556c-0.02,0-0.035-0.016-0.035-0.035v-83.954c5.68434e-14-22.515-14.233-45.378-36.057-50.919zm107.968-116.057c-0.001,0.034 0-0.036 0,0 0,4.284 5.009,9.519 8.889,13.036 0.007,0.007 0.011-0.01 0.011,0v11.022c0,0.02-0.016,0.035-0.035,0.035h-6.828c-2.103,0-3.995,1.536-4.18,3.631-0.209,2.368 1.652,4.355 3.977,4.355h21.916c2.103,0 3.995-1.536 4.18-3.631 0.209-2.368-1.652-4.355-3.977-4.355h-7.031c-0.02,0-0.035-0.016-0.035-0.035v-11.022c0-0.01 0.004,0.007 0.012,0 4.004-3.474 8.93-8.344 8.93-13.036-0.003-0.005 0,0.006 0,0 0.375-13.273 4.747-27.326 13.041-35.158 15.675-14.801 41.255-15.87 48.818-15.845 0,19.651-2.699,39.223-8.113,52.245-0.006,0.013-0.019,0.022-0.033,0.022h-18.143c-2.103,0-3.995,1.536-4.18,3.631-0.209,2.368 1.652,4.355 3.977,4.355h14.427c0.027,0 0.045,0.03 0.031,0.054-1.939,3.402-4.108,6.528-6.521,9.368-0.007,0.008-0.017,0.013-0.028,0.013h-18.595c-2.103,0-3.995,1.536-4.18,3.631-0.209,2.368 1.652,4.355 3.977,4.355h10.328c0.034,0 0.049,0.044 0.022,0.065-11.905,9.178-27.773,13.732-47.722,13.732-22.257,0-39.616-4.621-51.759-13.732-0.027-0.021-0.012-0.065 0.022-0.065h14.079c2.103,0 3.995-1.536 4.18-3.631 0.209-2.368-1.652-4.355-3.977-4.355h-22.118c-0.201,0-0.393,0.031-0.586,0.059-2.436-2.953-4.47-6.127-6.169-9.442-0.012-0.024 0.005-0.053 0.032-0.053h17.751c2.103,0 3.995-1.536 4.18-3.631 0.209-2.368-1.652-4.355-3.977-4.355h-21.377c-0.015,0-0.029-0.01-0.034-0.024-5.344-15.391-5.165-40.592-5.037-52.25 0.001-0.019-0.019,0 0,0 7.656-0.032 33.065,1.053 48.739,15.82 8.703,8.202 13.116,21.028 13.116,35.191z"></path>
    <path d="m397.42,141.403c-1.447,0-2.864,0.589-3.883,1.617-1.029,1.018-1.608,2.425-1.608,3.873 0,1.447 0.579,2.865 1.608,3.883 1.019,1.028 2.436,1.607 3.883,1.607 1.438,0 2.855-0.579 3.884-1.607 1.018-1.018 1.607-2.436 1.607-3.883 0-1.437-0.589-2.855-1.607-3.873-1.029-1.028-2.446-1.617-3.884-1.617z"></path>
    <path d="m323.688,141.403c-1.448,0-2.855,0.589-3.884,1.607-1.018,1.028-1.607,2.446-1.607,3.893 0,1.437 0.589,2.855 1.607,3.874 1.029,1.028 2.436,1.607 3.884,1.607 1.448,0 2.854-0.579 3.883-1.607 1.019-1.018 1.608-2.436 1.608-3.874 0-1.447-0.589-2.865-1.608-3.893-1.018-1.018-2.435-1.607-3.883-1.607z"></path>
  </g>
</svg>