<svg xmlns="http://www.w3.org/2000/svg" xmlns:xlink="http://www.w3.org/1999/xlink" version="1.1" viewBox="0 0 460 460" enable-background="new 0 0 460 460">
  <g>
    <path d="m446.078,35.375l-2.957-26.613c-0.317-2.85-2.239-5.266-4.945-6.215-2.704-0.948-5.716-0.264-7.744,1.764l-20.648,20.647c-2.874,2.874-5.077,6.425-6.384,10.276-3.12-1.144-6.504-2.098-10.139-2.879l8.603-25.809c0.506-1.517 0.252-3.183-0.683-4.48-0.934-1.298-2.435-2.066-4.033-2.066h-62.452c-1.599,0-3.099,0.768-4.035,2.065-0.934,1.297-1.189,2.963-0.683,4.48l8.582,25.746c-3.671,0.776-7.097,1.728-10.265,2.863-1.31-3.82-3.501-7.342-6.355-10.196l-20.645-20.647c-2.028-2.028-5.039-2.713-7.744-1.764-2.706,0.949-4.628,3.365-4.945,6.215l-2.958,26.614c-0.898,8.084 1.885,16.02 7.637,21.772l6.985,6.985c-0.77,3.283-1.17,6.76-1.17,10.418 0,2.751 0.18,5.72 0.529,8.853l-31.831,65.065c-0.346,0.691-0.525,1.452-0.525,2.224v30.997c-31.521,0.712-90.267,5.002-144.488,25.142-5.902,2.192-11.14,5.33-15.718,9.386-1.392-0.259-20.052-3.406-38.244,10.435-18.474,14.057-29.491,39.92-32.774,76.885-5.639,0.893-10.861,4.056-14.639,9.049-16.671,22.036-2.358,46.778 7.54,56.781 1.438,1.454 3.36,2.214 5.305,2.213 1.245,0 2.501-0.312 3.644-0.952 12.428-6.965 33.181-26.808 22.771-52.054-2.146-5.204-5.628-9.349-9.907-12.007 2.671-32.859 11.933-56.307 26.815-67.829 6.443-4.988 12.887-6.99 17.84-7.728-4.675,8.465-7.958,18.815-9.811,31.027-3.305,21.773-2.086,49.732 3.622,83.099 9.603,56.13 28.951,109.431 29.145,109.963 1.075,2.943 3.874,4.9 7.007,4.9h46.191c3.937,0 7.195-3.059 7.445-6.987l8.664-136.436c0.005-0.076 0-0.149 0.003-0.224 5.017-6.594 8.956-14.295 10.431-23.09l63.648,20.569c12.403,4.677 20.725,16.699 20.725,29.964v108.745c0,4.12 3.339,7.459 7.459,7.459h65.826c3.868,0 7.093-2.956 7.431-6.809l24.671-281.776c9.632-6.657 18.615-17.588 26.348-32.319 10.739-20.458 17.677-45.793 17.677-64.545 0-3.485-0.331-6.779-0.981-9.883l7.521-7.521c5.753-5.752 8.537-13.687 7.638-21.772zm-406.342,282.842c2.87,0.184 5.716,2.588 7.142,6.045 5.677,13.767-4.527,24.581-11.199,29.851-4.919-6.932-11.653-20.257-2.371-32.526 1.675-2.212 4.201-3.513 6.428-3.37zm325.765-154.167c-7.003,0-14.859-4.947-22.448-13.794 2.232-9.744 11.088-16.403 22.692-16.403 11.823,0 20.798,6.911 22.815,16.957-7.104,8.098-15.007,13.24-23.059,13.24zm-30.805-49.556h-11.883c-5.458-14.21-8.793-28.883-8.793-39.943 0-5.496 0.006-19.351 21.257-26.072l19.505,79.141c-7.889,2.61-14.112,8.026-17.476,15.108-2.212-3.231-4.375-6.785-6.458-10.643-1.337-2.478-2.612-5.038-3.824-7.645h7.674c2.747,0 4.973-2.227 4.973-4.973s-2.228-4.973-4.975-4.973zm31.049,11.403c-0.383,0-0.761,0.014-1.14,0.025l-19.646-79.717c4.502-0.749 9.662-1.246 15.569-1.424v43.46c0,2.746 2.226,4.973 4.973,4.973s4.973-2.227 4.973-4.973v-43.463c5.912,0.173 11.077,0.654 15.581,1.381l-19.656,79.753c-0.218-0.004-0.434-0.015-0.654-0.015zm17.572-95.156c-4.019-0.464-8.294-0.76-12.843-0.882v-19.913h19.773l-6.93,20.795zm-41.721-20.795h18.932v19.919c-4.215,0.121-8.219,0.402-12.015,0.835l-6.917-20.754zm-37.76,36.652c-2.53-2.53-3.755-6.02-3.36-9.575l1.243-11.188 9.672,9.673c1.18,1.18 2.105,2.619 2.689,4.183l.516,2.629c-2.934,2.197-5.482,4.678-7.6,7.44l-3.16-3.162zm-26.618,105.269l25.624-51.251c2.357,9.314 5.763,19.161 10.05,28.617l-27.392,52.407c-2.132-0.043-4.92-0.077-8.282-0.072v-29.701zm-112.646,293.214h-9.789v-102.344c4.074-2.094 10.386-5.684 16.968-10.718l-7.179,113.062zm192.569-93.677h-6.541c-4.12,0-7.459,3.34-7.459,7.459s3.339,7.459 7.459,7.459h5.235l-.516,5.898h-4.719c-4.12,0-7.459,3.34-7.459,7.459 0,4.12 3.339,7.459 7.459,7.459h3.412l-.516,5.898h-2.896c-4.12,0-7.459,3.34-7.459,7.459 0,4.12 3.339,7.459 7.459,7.459h1.59l-3.25,37.124h-18.39l3.061-101.269c0.124-4.118-3.113-7.557-7.231-7.681-4.135-0.143-7.557,3.113-7.681,7.231l-3.073,101.72h-18.216v-34.809h3.463c4.12,0 7.459-3.34 7.459-7.459 0-4.12-3.339-7.459-7.459-7.459h-3.463v-5.898h3.463c4.12,0 7.459-3.34 7.459-7.459s-3.339-7.459-7.459-7.459h-3.463v-5.898h3.463c4.12,0 7.459-3.34 7.459-7.459s-3.339-7.459-7.459-7.459h-3.463v-9.922c0-19.519-12.294-37.203-30.591-44.002-0.1-0.037-0.202-0.073-0.304-0.106l-73.011-23.595c-2.35-0.759-4.921-0.307-6.87,1.207-1.948,1.514-3.024,3.893-2.869,6.357 1.837,29.385-38.974,47.36-39.377,47.534-2.743,1.175-4.521,3.873-4.521,6.856v107.035h-9.196c-3.218-9.361-10.433-31.241-17.188-57.941h7.368c4.12,0 7.459-3.34 7.459-7.459 0-4.12-3.339-7.459-7.459-7.459h-10.962c-0.446-1.95-0.884-3.918-1.316-5.898h13.273c4.12,0 7.459-3.34 7.459-7.459s-3.339-7.459-7.459-7.459h-16.135c-0.062,0-0.123,0.008-0.185,0.009-0.428-2.254-0.838-4.518-1.236-6.786h17.556c4.12,0 7.459-3.34 7.459-7.459s-3.339-7.459-7.459-7.459h-19.892c-0.011,0-0.021,0.001-0.032,0.002-6.427-45.691-5.776-97.068 26.059-108.892 2.09-0.776 4.19-1.524 6.297-2.252v45.002c0,4.12 3.339,7.459 7.459,7.459 4.12,0 7.459-3.34 7.459-7.459v-49.73c0-0.006-0.001-0.011-0.001-0.017 7.309-2.131 14.642-4 21.915-5.644v25.784c0,4.12 3.339,7.459 7.459,7.459 4.12,0 7.459-3.34 7.459-7.459v-28.866c5.522-1.038 10.971-1.955 16.307-2.761v43.654c0,4.12 3.339,7.459 7.459,7.459 4.12,0 7.459-3.34 7.459-7.459v-45.674c5.639-0.677 11.095-1.239 16.307-1.701v66.573c0,4.12 3.339,7.459 7.459,7.459 4.12,0 7.459-3.34 7.459-7.459v-67.686c5.953-0.363 11.43-0.599 16.307-0.747v68.433c0,4.12 3.339,7.459 7.459,7.459s7.459-3.34 7.459-7.459v-68.659c6.173,0.008 9.739,0.151 9.911,0.158 2.884,0.125 5.601-1.429 6.943-3.997l3.719-7.116 16.75,25.124c0.959,1.438 2.535,2.215 4.143,2.215 0.948,0 1.906-0.271 2.754-0.836 2.285-1.523 2.903-4.611 1.379-6.896l-19.772-29.657 5.42-10.37 16.485,24.728c0.958,1.438 2.535,2.215 4.143,2.215 0.948,0 1.906-0.27 2.754-0.836 2.285-1.523 2.903-4.611 1.379-6.896l-19.507-29.261 5.122-9.799c11.592,19.118 26.943,33.665 44.175,33.665 2.278,0 4.546-0.231 6.797-0.683l-15.157,173.113zm51.751-236.91h-11.745c-2.747,0-4.973,2.227-4.973,4.973s2.226,4.973 4.973,4.973h7.691c-3.052,6.773-6.567,13.182-10.42,18.792-3.365-7.465-9.874-13.14-18.164-15.75l19.497-79.108c21.224,6.54 21.23,20.102 21.23,26.177 0.001,11.724-3.025,26.136-8.089,39.943zm19-67.896l-3.447,3.447c-2.04-2.745-4.501-5.225-7.371-7.439l.572-2.916c0.585-1.564 1.509-3.003 2.689-4.183l9.672-9.673 1.243,11.188c0.396,3.556-0.829,7.047-3.358,9.576z"></path>
    <path d="m333.961,93.681c-1.312,0-2.595,0.527-3.521,1.452-0.925,0.925-1.452,2.208-1.452,3.521 0,1.303 0.527,2.586 1.452,3.511 0.926,0.925 2.209,1.462 3.521,1.462 1.303,0 2.587-0.537 3.511-1.462 0.925-0.925 1.462-2.208 1.462-3.511 0-1.313-0.537-2.596-1.462-3.521s-2.208-1.452-3.511-1.452z"></path>
    <path d="m355.515,141.511c-1.055,0-2.08,0.428-2.815,1.164-0.736,0.736-1.164,1.771-1.164,2.815 0,1.045 0.427,2.069 1.164,2.815 0.735,0.736 1.76,1.164 2.815,1.164 1.044,0 2.068-0.428 2.814-1.164 0.736-0.746 1.165-1.77 1.165-2.815 0-1.044-0.428-2.069-1.165-2.815-0.747-0.736-1.77-1.164-2.814-1.164z"></path>
    <path d="m376.331,141.511c-1.055,0-2.079,0.428-2.815,1.164-0.736,0.736-1.164,1.771-1.164,2.815 0,1.045 0.427,2.069 1.164,2.815 0.736,0.736 1.771,1.164 2.815,1.164s2.069-0.428 2.815-1.164c0.736-0.746 1.164-1.77 1.164-2.815 0-1.044-0.427-2.069-1.164-2.815-0.746-0.736-1.771-1.164-2.815-1.164z"></path>
    <path d="m396.411,93.681c-1.312,0-2.595,0.527-3.521,1.452-0.925,0.925-1.452,2.208-1.452,3.521 0,1.303 0.527,2.586 1.452,3.511 0.926,0.925 2.209,1.462 3.521,1.462 1.303,0 2.587-0.537 3.511-1.462 0.935-0.925 1.462-2.208 1.462-3.511 0-1.313-0.526-2.596-1.462-3.521-0.924-0.925-2.207-1.452-3.511-1.452z"></path>
  </g>
</svg>